<?xml version="1.0" standalone="no"?>
<!DOCTYPE svg PUBLIC "-//W3C//DTD SVG 20010904//EN"
 "http://www.w3.org/TR/2001/REC-SVG-20010904/DTD/svg10.dtd">
<svg version="1.0" xmlns="http://www.w3.org/2000/svg"
 width="2993.000000pt" height="714.000000pt" viewBox="0 0 2993.000000 714.000000"
 preserveAspectRatio="xMidYMid meet">

<g transform="translate(0.000000,714.000000) scale(0.100000,-0.100000)"
fill="#000000" stroke="none">
<path d="M2942 7104 c-19 -15 -29 -30 -24 -33 5 -3 -15 -31 -44 -61 -31 -31
-52 -46 -48 -35 4 11 11 25 15 31 5 6 6 13 3 16 -3 4 -1 23 5 44 18 63 5 49
-29 -33 -58 -140 -83 -189 -87 -170 -9 39 -21 3 -16 -48 4 -38 2 -55 -6 -55
-6 0 -11 7 -11 15 0 8 -6 14 -12 13 -8 -2 -14 10 -16 27 -6 56 -25 54 -20 -2
3 -29 1 -54 -4 -55 -6 -2 7 -16 29 -31 21 -15 34 -27 30 -27 -18 0 -67 31 -82
52 -12 17 -18 20 -24 10 -6 -10 -13 -10 -37 3 -46 24 -71 16 -42 -13 18 -18
-3 -15 -50 8 -86 42 -133 7 -51 -39 64 -36 37 -37 -45 -2 -41 18 -82 31 -93
29 -11 -2 4 -12 42 -27 67 -27 96 -47 52 -37 -56 13 -142 57 -129 65 9 5 1 10
-25 14 -55 10 -106 8 -123 -3 -13 -8 -13 -10 1 -10 16 0 131 -59 116 -60 -18
0 -103 23 -112 31 -5 5 -25 9 -45 8 l-35 0 50 -18 c28 -9 77 -31 110 -49 87
-45 38 -40 -74 7 -78 34 -98 39 -133 33 -47 -8 -65 -32 -23 -32 18 0 24 4 19
13 -6 9 -4 9 8 -1 8 -7 69 -28 134 -46 190 -55 331 -121 516 -242 54 -35 102
-64 106 -64 5 0 17 -9 26 -19 28 -31 116 -68 181 -75 86 -10 171 -34 227 -62
68 -34 128 -91 128 -120 0 -27 -15 -32 -24 -8 -4 9 -9 14 -13 11 -3 -4 0 -13
7 -22 7 -9 10 -26 6 -42 l-6 -28 20 27 c11 14 45 40 75 57 68 39 119 110 150
210 6 19 4 23 -8 18 -11 -4 -17 2 -22 24 -5 22 -12 29 -31 29 -13 0 -24 5 -24
11 0 5 5 7 10 4 21 -13 9 7 -24 40 -35 35 -46 35 -46 2 0 -13 -8 -5 -24 24
-27 50 -24 65 5 29 15 -19 18 -20 10 -4 -18 38 -98 103 -119 98 -12 -4 -22 0
-25 10 -4 9 -16 16 -28 16 -11 0 -39 16 -62 35 -22 19 -44 35 -48 35 -14 0
-20 -39 -9 -60 24 -45 0 -28 -46 32 -26 35 -53 66 -59 70 -5 4 -34 7 -63 6
-77 -2 -83 9 -44 87 18 36 32 68 32 71 0 17 -29 -21 -50 -66 -13 -27 -27 -50
-32 -50 -12 0 -10 14 7 36 8 10 15 26 15 35 0 8 20 45 45 82 48 71 49 84 3 40
-38 -36 -46 -23 -11 18 16 19 35 47 43 62 8 15 33 46 57 68 45 42 53 55 27 45
-12 -4 -15 -2 -10 9 8 22 -4 18 -42 -11z m-131 -231 c-15 -29 -40 -59 -41 -50
0 14 33 67 43 67 4 0 3 -8 -2 -17z m39 -17 c0 -2 -8 -10 -17 -17 -16 -13 -17
-12 -4 4 13 16 21 21 21 13z m-370 -117 c32 -17 73 -44 91 -60 l34 -29 -60 27
c-57 25 -145 79 -145 88 0 11 26 3 80 -26z m113 -15 c11 -14 17 -27 14 -30 -5
-5 -77 61 -77 71 0 12 47 -19 63 -41z m180 -5 c26 -17 57 -45 69 -62 l23 -32
-32 23 c-17 12 -35 22 -40 22 -13 0 -83 60 -83 71 0 15 15 10 63 -22z m201
-80 c14 -17 26 -35 26 -40 0 -13 -49 25 -67 51 -24 34 11 25 41 -11z m-40 -18
c11 -12 17 -23 15 -26 -8 -7 -48 24 -60 46 -9 18 -8 19 8 11 10 -6 27 -20 37
-31z m238 -114 c10 -22 18 -41 15 -43 -5 -5 -67 72 -67 84 0 5 -7 15 -15 22
-8 7 -15 17 -15 23 0 18 61 -46 82 -86z m73 -34 c14 -31 24 -61 22 -67 -6 -17
-67 85 -67 112 0 34 15 19 45 -45z m66 -36 c16 -60 3 -56 -26 8 -30 69 -31 73
-5 50 11 -10 25 -36 31 -58z"/>
<path d="M4338 7074 c-4 -3 0 -13 8 -22 9 -8 13 -23 11 -33 -3 -11 -2 -21 3
-24 4 -3 11 -26 15 -51 3 -26 9 -53 12 -60 3 -9 0 -12 -9 -9 -17 7 -48 68 -48
95 0 11 -9 24 -20 30 -16 9 -20 8 -20 -5 0 -8 5 -15 10 -15 19 0 10 -19 -12
-26 l-23 -7 24 -8 c14 -6 21 -15 18 -23 -3 -8 2 -17 11 -21 15 -6 15 -8 -3
-15 -17 -6 -14 -9 18 -19 20 -7 37 -19 37 -27 0 -8 7 -14 15 -14 9 0 18 -7 21
-15 4 -8 10 -15 15 -15 4 0 6 7 3 15 -4 8 -1 15 5 15 6 0 17 12 23 28 7 15 21
37 32 50 11 12 16 22 12 22 -5 0 -1 11 8 25 10 16 14 34 10 47 -4 15 -8 17
-14 8 -5 -7 -6 -19 -3 -27 3 -7 0 -13 -5 -13 -7 0 -9 19 -6 53 3 41 2 47 -6
29 -14 -32 -45 -73 -37 -49 4 11 1 17 -10 17 -8 0 -26 11 -39 25 -13 14 -27
25 -33 25 -5 0 -11 5 -13 11 -2 5 -6 7 -10 3z"/>
<path d="M2869 7040 c-13 -10 -19 -19 -13 -20 6 0 19 9 29 20 23 26 14 26 -16
0z"/>
<path d="M4255 7000 c3 -5 8 -10 11 -10 2 0 4 5 4 10 0 6 -5 10 -11 10 -5 0
-7 -4 -4 -10z"/>
<path d="M2329 6765 c18 -8 36 -15 40 -15 13 1 -45 29 -59 29 -8 0 0 -6 19
-14z"/>
<path d="M4608 6763 c6 -2 18 -2 25 0 6 3 1 5 -13 5 -14 0 -19 -2 -12 -5z"/>
<path d="M4668 6753 c6 -2 18 -2 25 0 6 3 1 5 -13 5 -14 0 -19 -2 -12 -5z"/>
<path d="M4725 6740 c11 -5 31 -9 45 -9 23 0 23 1 5 9 -11 5 -31 9 -45 9 -23
0 -23 -1 -5 -9z"/>
<path d="M4122 6729 c-355 -22 -435 -78 -532 -378 -68 -211 -111 -279 -217
-347 -29 -18 -53 -38 -53 -44 0 -5 -8 -10 -17 -10 -11 -1 -6 -6 12 -14 47 -21
56 -37 51 -102 -2 -32 -9 -60 -15 -62 -6 -2 -8 -14 -5 -28 9 -34 -63 -104
-106 -104 -17 0 -30 5 -30 10 0 6 -14 10 -30 10 -28 0 -30 2 -24 28 4 15 13
31 21 35 23 14 44 65 37 93 -6 25 -21 34 -76 48 -39 9 -35 -9 5 -20 24 -7 33
-16 35 -35 4 -34 -37 -58 -70 -41 -13 7 -52 14 -87 15 -37 2 -66 8 -69 15 -2
6 -19 16 -38 22 -43 14 -43 26 -1 44 17 8 26 15 19 15 -9 1 -11 8 -7 21 9 29
-16 35 -59 15 -34 -16 -56 -14 -56 6 0 6 21 19 46 30 59 26 115 19 145 -19 11
-15 17 -20 13 -12 -4 8 -7 29 -6 47 3 43 -24 57 -94 50 l-53 -5 -4 36 c-4 37
-4 37 -5 -5 -1 -24 -6 -43 -12 -43 -6 0 -10 34 -9 83 1 56 4 74 9 57 7 -23 8
-21 9 12 1 31 -4 39 -34 57 -27 15 -35 17 -35 6 0 -7 -7 -21 -16 -30 -14 -13
-16 -29 -10 -86 7 -81 -5 -91 -22 -18 -13 56 -15 102 -5 138 6 23 7 23 14 5 7
-16 8 -15 8 7 1 26 -33 56 -108 96 -21 12 -22 11 -16 -5 3 -9 12 -43 20 -74
11 -50 11 -58 -1 -58 -21 0 -18 -10 30 -101 24 -46 47 -95 51 -109 l7 -25 -31
29 c-17 17 -40 50 -52 75 -39 86 -42 91 -58 91 -12 0 -12 -3 -3 -12 7 -7 12
-21 12 -33 0 -16 -4 -14 -21 13 -31 47 -32 39 -4 -24 l24 -55 -22 7 c-19 6
-20 5 -8 -10 7 -9 22 -16 33 -16 19 0 73 -48 114 -100 14 -18 29 -25 53 -25
28 0 35 -4 36 -22 2 -22 -16 -30 -49 -24 -5 1 -16 -1 -24 -4 -26 -10 23 -37
60 -33 18 2 33 -2 35 -9 3 -8 -4 -13 -16 -13 -25 0 -29 -20 -3 -20 16 -1 105
-50 90 -50 -19 0 -118 43 -118 51 0 5 -8 9 -17 9 -12 -1 -3 -14 30 -41 26 -23
47 -45 47 -51 0 -5 -21 2 -47 16 l-48 27 39 -33 c119 -101 131 -122 43 -76
-42 22 -87 31 -87 17 0 -12 44 -43 89 -63 22 -11 41 -23 41 -28 0 -8 -12 -6
-75 9 -17 4 -16 1 5 -16 36 -30 114 -48 213 -50 18 -1 26 -5 21 -12 -4 -7 -22
-9 -48 -5 l-41 6 28 -16 c16 -8 58 -21 94 -29 36 -8 67 -16 70 -19 11 -11 -10
-25 -50 -32 -34 -5 -38 -8 -22 -15 34 -13 101 -10 141 7 l39 16 -45 15 c-76
25 -82 44 -6 21 64 -19 96 -19 96 1 0 6 -12 17 -27 25 l-28 15 27 1 c15 0 39
-5 54 -10 33 -13 82 1 124 37 27 23 30 23 30 6 0 -24 26 -61 36 -51 3 4 -1 19
-10 33 -23 34 -14 56 35 88 42 28 83 35 94 17 3 -5 1 -10 -4 -10 -6 0 -11 -9
-11 -20 0 -11 -9 -29 -19 -39 -19 -19 -19 -19 -24 0 -3 10 1 23 9 30 8 6 14
16 14 22 0 5 -9 2 -20 -8 -14 -12 -18 -27 -16 -49 2 -17 4 -37 5 -43 0 -7 6
-13 11 -13 6 0 10 6 10 13 0 19 110 133 118 122 4 -6 16 -15 27 -21 31 -17 32
-44 1 -44 -15 0 -35 -10 -48 -25 -14 -16 -28 -23 -39 -20 -12 4 -22 -1 -29
-15 -9 -17 -8 -20 8 -20 10 0 22 4 28 9 5 5 38 11 74 13 49 2 68 -1 77 -12 8
-10 12 -11 13 -3 0 10 7 10 28 2 15 -6 54 -14 87 -16 35 -3 68 -12 78 -21 15
-13 22 -14 37 -4 11 7 28 12 38 12 11 0 27 9 37 20 10 11 28 20 39 20 27 0 40
9 55 38 6 12 20 22 31 22 11 0 27 11 36 25 9 14 22 25 29 25 8 0 22 10 32 23
10 13 26 26 36 30 26 10 23 63 -5 78 -13 7 -29 20 -36 31 -7 10 -20 18 -28 18
-17 0 -19 16 -1 23 9 4 8 8 -3 16 -12 9 -12 11 3 17 9 3 17 10 17 16 0 5 -4 6
-10 3 -5 -3 -10 1 -10 11 0 14 3 14 16 3 13 -10 20 -10 45 5 16 9 34 14 40 10
6 -3 31 -1 55 6 40 12 47 18 70 68 14 30 22 57 19 60 -7 7 -34 -31 -29 -40 3
-5 -3 -21 -13 -38 -20 -35 -54 -42 -46 -10 3 11 11 20 18 20 8 0 17 14 20 32
4 18 11 39 16 48 4 8 11 24 15 35 6 19 7 18 14 -5 7 -22 8 -22 9 -4 1 11 -10
31 -23 43 -13 12 -26 37 -29 54 -3 18 -8 42 -12 55 -6 17 -3 22 9 22 9 0 16 5
16 11 0 6 -9 8 -20 4 -14 -4 -20 -2 -20 8 0 7 17 19 38 25 21 7 46 20 54 29
32 37 50 134 28 148 -10 6 -13 -5 -11 -42 1 -12 -6 -26 -16 -32 -10 -6 -12
-11 -5 -11 10 0 10 -5 2 -20 -6 -11 -15 -20 -20 -20 -15 0 -12 27 6 61 19 39
5 62 -34 52 -22 -5 -24 -3 -19 16 4 18 2 21 -14 16 -19 -6 -20 -4 -19 43 0 4
-35 9 -77 12 -72 5 -76 6 -54 19 15 8 67 14 146 17 107 3 215 14 282 29 14 3
20 10 17 19 -4 9 -32 17 -87 22 l-82 8 60 7 c33 4 95 9 138 12 44 3 83 9 88
14 11 11 -94 43 -140 43 -16 0 -61 7 -100 15 -81 17 -356 24 -529 14z m708
-56 c26 -10 -42 -24 -85 -17 -73 10 -84 18 -35 24 47 5 94 3 120 -7z m-107
-83 c10 -9 -43 -18 -113 -21 -79 -3 -102 0 -98 14 8 22 188 28 211 7z m-288
-136 c1 -22 4 -45 8 -51 4 -7 6 -32 3 -57 -2 -26 0 -49 5 -52 17 -10 10 -54
-8 -54 -17 -1 -17 -1 0 -14 9 -7 17 -23 17 -36 0 -28 -20 -102 -32 -114 -4 -6
-8 -24 -8 -40 -1 -36 -54 -114 -65 -96 -9 15 3 114 20 162 11 33 10 39 -7 58
-11 11 -23 18 -29 15 -5 -4 -9 4 -9 17 l0 23 -13 -25 c-7 -14 -11 -27 -7 -30
9 -8 10 -230 0 -230 -4 0 -7 -11 -7 -24 0 -27 -41 -85 -60 -85 -7 -1 -13 -5
-13 -11 0 -18 -45 -10 -63 10 -10 12 -16 24 -13 28 2 4 -1 18 -8 30 -12 22
-13 22 -27 6 -9 -11 -9 -15 -1 -10 7 4 12 1 12 -8 0 -21 -19 -20 -88 5 -31 11
-77 27 -102 35 -72 22 -76 27 -45 58 14 14 30 26 35 26 5 0 14 9 20 19 5 11
19 23 31 26 19 6 20 7 2 20 -16 12 -14 15 25 30 56 23 49 28 -13 10 -57 -18
-83 -19 -69 -5 6 6 33 16 62 22 63 15 69 31 10 22 l-43 -6 25 21 c14 11 32 21
40 21 8 0 29 12 45 25 l30 25 -30 0 -30 0 25 21 c14 11 21 19 15 16 -30 -15
-115 -35 -115 -27 0 4 20 16 45 26 25 9 45 21 45 26 0 6 -8 7 -17 3 -10 -3
-31 -9 -47 -12 -47 -10 -22 13 35 32 27 9 58 25 67 34 9 10 42 23 73 30 31 6
65 18 75 26 16 12 12 12 -36 0 -30 -8 -72 -17 -92 -20 -26 -4 -35 -10 -32 -19
4 -10 -11 -19 -48 -31 -29 -9 -60 -19 -68 -21 -34 -11 8 16 45 30 22 7 39 19
37 25 -5 23 118 56 251 66 l87 7 -1 -28 c-1 -24 -2 -25 -6 -6 -2 12 -9 22 -15
22 -13 0 -1 -50 18 -71 16 -18 19 -49 4 -49 -5 0 -10 -5 -10 -11 0 -6 7 -8 16
-5 8 3 13 2 10 -3 -3 -5 3 -11 14 -14 21 -5 28 7 10 18 -5 3 -10 19 -10 35 0
16 -5 32 -10 35 -6 4 -8 21 -5 39 5 23 2 36 -9 45 -9 7 -13 17 -10 22 3 5 -23
9 -57 9 -34 0 -59 3 -55 7 6 7 141 22 161 18 6 -1 10 -19 10 -41z m-167 -2 c7
-5 -18 -13 -64 -20 -43 -7 -79 -10 -82 -8 -5 6 86 34 113 35 11 0 26 -3 33 -7z
m272 -46 c0 -3 -4 -8 -10 -11 -5 -3 -10 -1 -10 4 0 6 5 11 10 11 6 0 10 -2 10
-4z m-180 -260 c0 -8 -4 -18 -10 -21 -5 -3 -10 3 -10 14 0 12 5 21 10 21 6 0
10 -6 10 -14z m-1583 -48 c-3 -7 -5 -2 -5 12 0 14 2 19 5 13 2 -7 2 -19 0 -25z
m1579 -25 c-10 -10 -19 5 -10 18 6 11 8 11 12 0 2 -7 1 -15 -2 -18z m-406 -18
c0 -8 -9 -15 -19 -15 -10 0 -21 -7 -25 -15 -6 -17 -61 -21 -71 -5 -3 5 9 19
27 30 40 24 88 27 88 5z m-987 -325 c3 -11 2 -20 -2 -20 -5 0 -16 9 -26 20
-18 19 -17 20 2 20 12 0 23 -8 26 -20z m92 -26 c22 -47 18 -65 -5 -22 -11 20
-28 41 -37 47 -16 9 -15 10 4 8 15 -1 28 -12 38 -33z m55 -5 c0 -11 -4 -17
-10 -14 -5 3 -10 13 -10 21 0 8 5 14 10 14 6 0 10 -9 10 -21z m-155 -94 c19
-16 19 -16 -10 -10 -31 7 -65 31 -65 47 0 10 45 -12 75 -37z m358 -33 c9 -8
17 -21 17 -29 0 -22 -69 26 -70 49 0 10 31 -2 53 -20z m65 -7 c6 -14 10 -25 9
-25 -2 0 -14 11 -27 25 -18 19 -20 25 -8 25 8 0 20 -11 26 -25z m56 -15 l7
-25 -15 25 c-17 28 -21 50 -7 35 5 -6 12 -21 15 -35z m-446 -2 c33 -23 42 -34
30 -36 -19 -4 -98 43 -98 58 0 17 20 11 68 -22z m92 11 c23 -12 40 -23 38 -24
-8 -8 -56 8 -78 26 -33 25 -10 24 40 -2z m48 -51 c13 -11 16 -28 5 -28 -5 0
-21 12 -38 26 -29 24 -29 25 -5 18 14 -3 31 -11 38 -16z m136 -20 c-6 -9 -39
6 -49 21 -3 5 8 4 24 -2 17 -6 28 -15 25 -19z"/>
<path d="M4280 5994 c0 -5 7 -18 15 -28 12 -16 15 -17 15 -4 0 8 -7 21 -15 28
-8 7 -15 9 -15 4z"/>
<path d="M4218 5927 c-3 -15 -1 -30 4 -33 5 -3 1 -16 -9 -27 -18 -22 -18 -22
3 -4 11 9 30 17 42 17 12 0 22 6 22 13 0 21 -12 28 -26 16 -14 -11 -15 -10
-27 31 -2 9 -6 3 -9 -13z"/>
<path d="M4935 6681 c28 -11 57 -20 65 -20 23 0 -42 26 -81 33 -26 4 -23 2 16
-13z"/>
<path d="M5065 6620 c-4 -6 5 -10 20 -10 15 0 24 4 20 10 -3 6 -12 10 -20 10
-8 0 -17 -4 -20 -10z"/>
<path d="M2120 6592 c8 -5 26 -13 40 -16 17 -5 20 -4 10 2 -8 5 -26 13 -40 16
-17 5 -20 4 -10 -2z"/>
<path d="M2309 6509 c68 -33 125 -58 127 -56 6 6 -220 117 -236 116 -8 0 41
-27 109 -60z"/>
<path d="M2457 6439 c7 -7 15 -10 18 -7 3 3 -2 9 -12 12 -14 6 -15 5 -6 -5z"/>
<path d="M1710 6415 c1 -5 33 -49 73 -96 40 -48 125 -151 190 -230 66 -79 127
-154 137 -166 36 -42 50 -70 44 -87 -7 -19 -16 -20 -33 -3 -8 8 -8 2 2 -23 19
-45 30 -162 31 -325 1 -120 3 -134 28 -185 15 -30 43 -70 62 -89 33 -32 35
-33 73 -21 69 23 110 57 148 122 27 45 35 69 31 89 -7 36 5 45 25 18 11 -15
22 -20 34 -15 16 6 16 8 0 32 -17 26 -16 26 44 89 34 35 61 68 61 73 0 15 -29
42 -44 42 -8 0 -19 7 -27 16 -10 12 -10 20 -1 35 19 29 14 48 -17 79 -18 19
-44 32 -70 36 -45 7 -24 -15 -294 316 -80 98 -154 190 -165 205 -11 15 -23 26
-25 23 -3 -3 30 -52 74 -110 142 -188 290 -391 295 -404 4 -10 -8 -16 -42 -21
-25 -3 -52 -9 -59 -11 -7 -3 -54 41 -105 98 -51 57 -129 143 -174 193 -45 49
-110 121 -146 160 -36 38 -84 93 -108 120 -23 28 -42 46 -42 40z m486 -639 c3
-8 -3 -27 -12 -42 l-18 -27 -7 27 c-4 15 -5 34 -2 42 7 18 32 18 39 0z"/>
<path d="M5353 6393 c-11 -16 -53 -64 -93 -108 -40 -44 -110 -120 -154 -170
-45 -49 -127 -140 -184 -201 l-103 -113 3 -53 c3 -46 6 -53 26 -56 12 -2 22
-10 22 -18 0 -17 -12 -18 -28 -2 -8 8 -12 8 -12 1 0 -17 26 -34 44 -27 9 3 16
1 16 -5 0 -6 -11 -11 -25 -11 -14 0 -25 -4 -25 -8 0 -8 -3 -13 -70 -99 -40
-53 -65 -64 -88 -41 -20 20 -14 39 26 83 96 108 117 141 83 130 -16 -5 -20 1
-25 40 -6 38 -11 45 -29 45 -12 0 -35 -7 -51 -15 l-29 -15 6 34 c4 26 2 34 -7
30 -8 -3 -16 3 -20 12 -8 21 -1 30 214 319 86 116 160 216 164 223 17 30 -6 7
-56 -55 -30 -38 -138 -171 -241 -296 l-187 -228 7 -122 c6 -121 6 -122 -21
-153 -14 -18 -26 -37 -26 -43 0 -18 21 -12 40 12 10 12 22 19 26 15 4 -5 -1
-17 -11 -28 -10 -11 -15 -23 -11 -28 5 -4 32 19 60 50 29 32 56 55 59 51 15
-14 5 -42 -29 -87 -21 -25 -34 -50 -30 -54 4 -4 12 1 17 11 18 31 58 72 59 59
0 -7 -12 -29 -27 -48 l-26 -35 25 -25 25 -25 52 47 c67 60 79 48 16 -16 -59
-60 -54 -77 6 -21 24 23 47 41 52 41 13 0 8 -60 -8 -90 l-15 -29 36 -7 c80
-15 204 37 256 107 31 41 48 91 47 133 -1 30 -1 30 -10 -7 -28 -120 -112 -197
-230 -212 -51 -6 -60 3 -48 53 6 28 6 49 -1 62 -16 29 0 81 41 137 38 51 39
52 93 52 30 0 68 7 85 15 41 22 48 20 59 -11 l10 -28 1 26 c1 14 -6 34 -14 45
-8 10 -15 14 -15 8 0 -26 -127 -53 -137 -29 -5 16 12 159 23 188 4 11 1 17 -9
17 -18 0 -30 27 -20 43 7 12 209 263 228 283 5 7 37 44 70 84 33 40 79 95 103
123 36 44 50 67 39 67 -2 0 -13 -12 -24 -27z m-419 -631 c0 -12 -1 -49 -2 -82
-2 -44 -6 -60 -16 -60 -18 0 -26 31 -26 102 0 36 5 58 13 61 21 9 32 1 31 -21z
m-294 2 c0 -9 -9 -27 -20 -41 l-20 -26 0 35 c0 19 3 38 7 41 12 13 33 7 33 -9z
m110 -13 c0 -10 2 -31 5 -47 5 -25 -2 -37 -48 -86 -36 -38 -62 -57 -83 -60
-29 -3 -29 -3 -29 48 1 38 7 61 25 88 40 59 130 99 130 57z m-34 -329 c-18
-16 -18 -16 -6 6 6 13 14 21 18 18 3 -4 -2 -14 -12 -24z"/>
<path d="M1010 6266 c78 -102 130 -192 130 -229 0 -16 6 -18 41 -14 35 4 42 1
51 -18 6 -13 21 -28 35 -34 33 -15 75 14 99 69 23 51 40 53 19 3 -28 -68 -92
-117 -150 -119 -101 -2 -120 -5 -102 -15 9 -6 47 -10 82 -10 36 0 67 -4 70
-10 4 -5 16 -9 27 -9 20 0 21 -4 15 -75 -10 -109 -78 -367 -107 -398 -4 -4
-40 15 -80 43 -41 27 -79 50 -87 50 -20 0 -47 70 -44 117 3 43 -15 113 -28
113 -4 0 -4 -28 0 -62 7 -56 4 -68 -19 -116 -28 -58 -59 -86 -109 -97 -43 -9
-42 1 1 19 18 8 45 30 60 49 24 31 25 38 14 61 -7 17 -22 29 -40 33 -30 6 -36
29 -18 62 8 16 3 20 -49 30 -63 12 -178 65 -285 130 -38 23 -70 40 -72 39 -1
-2 35 -37 82 -78 89 -80 125 -124 169 -207 15 -29 30 -53 34 -53 3 1 17 7 31
15 35 20 50 18 50 -5 0 -10 9 -24 21 -30 11 -6 19 -16 17 -22 -6 -16 -66 -36
-111 -37 -50 -1 -39 -18 17 -26 29 -5 63 -2 97 9 29 8 55 14 56 12 8 -7 30
-96 26 -100 -3 -3 -5 -80 -4 -171 1 -102 -2 -165 -8 -165 -20 0 -332 159 -356
181 -19 19 -25 34 -25 72 0 26 -4 47 -10 47 -5 0 -10 -17 -10 -38 0 -50 -38
-121 -80 -149 -51 -35 -59 -27 -13 12 40 34 84 118 69 132 -3 3 -6 -1 -6 -10
0 -19 -15 -23 -25 -7 -3 6 -20 10 -37 10 -28 0 -30 2 -26 33 3 17 7 39 9 47 3
10 -9 16 -47 21 -74 9 -165 43 -274 99 -52 27 -95 48 -96 47 -2 -1 36 -34 83
-72 83 -67 182 -184 203 -240 l10 -26 26 20 c35 28 52 26 64 -4 5 -14 16 -25
25 -25 39 0 -13 -50 -75 -71 -16 -6 -30 -14 -30 -18 0 -12 94 5 129 23 30 16
60 22 48 9 -4 -3 -2 -12 3 -18 16 -20 23 -367 7 -377 -7 -5 -8 -8 -1 -8 15 0
5 -111 -12 -131 -16 -18 -19 -33 -4 -24 6 3 10 1 10 -4 0 -6 -4 -11 -10 -11
-5 0 -10 -5 -10 -11 0 -5 6 -7 13 -3 6 4 4 -2 -5 -13 -10 -11 -18 -29 -18 -40
0 -11 -7 -26 -15 -33 -19 -16 -17 -106 1 -103 15 3 27 -76 18 -111 -9 -37 -25
-32 -17 6 6 32 6 32 -14 12 -11 -10 -24 -30 -28 -43 -7 -22 -5 -23 18 -17 14
3 29 2 32 -4 4 -6 -7 -10 -26 -10 -38 0 -32 -9 17 -26 33 -11 36 -11 45 13 5
13 9 32 9 41 0 24 17 2 22 -28 l4 -25 12 28 c7 16 12 42 12 58 0 43 20 35 22
-8 5 -99 2 -156 -7 -159 -5 -2 -28 -5 -50 -8 l-41 -4 3 36 c3 35 3 35 -8 12
-6 -14 -13 -81 -16 -150 -3 -72 -13 -159 -24 -206 -23 -98 -23 -121 -3 -199 8
-33 19 -130 23 -216 l8 -156 46 -94 c27 -55 50 -121 57 -159 17 -96 46 -146
131 -219 46 -39 96 -97 133 -150 32 -47 76 -105 98 -128 22 -22 38 -46 34 -51
-3 -6 -28 -18 -54 -27 -26 -10 -58 -26 -71 -36 -19 -16 -21 -23 -14 -46 6 -16
17 -29 25 -31 9 -2 59 18 111 43 l96 46 83 -47 c155 -87 151 -84 133 -104 -9
-10 -81 -62 -161 -116 -79 -54 -149 -103 -155 -110 -14 -17 9 -67 32 -72 9 -2
65 33 123 78 59 44 141 103 183 131 l76 52 96 -22 c53 -12 123 -25 156 -29 33
-4 60 -12 60 -17 0 -10 -48 -56 -308 -299 -64 -61 -117 -117 -117 -125 1 -22
24 -51 41 -51 8 0 48 32 89 71 41 39 131 123 198 187 228 215 221 210 266 215
22 2 44 1 48 -2 4 -3 -20 -37 -53 -76 -58 -68 -76 -102 -66 -128 4 -11 197
-137 211 -137 3 0 44 -27 91 -60 48 -33 89 -58 93 -56 4 2 41 73 82 158 41 84
76 155 78 158 2 2 27 -8 55 -23 29 -15 57 -27 64 -27 6 0 13 -4 15 -8 7 -18
79 -64 87 -56 5 5 28 54 51 109 23 55 54 127 69 160 15 33 40 89 55 125 24 55
36 70 75 93 25 15 55 32 66 39 11 7 37 23 58 36 22 13 41 21 45 18 3 -3 -23
-70 -58 -149 -90 -204 -90 -241 2 -285 l44 -20 -9 -78 c-9 -74 -9 -78 13 -96
12 -10 33 -18 46 -18 25 0 33 15 12 23 -17 5 8 37 29 37 24 0 62 53 63 86 0
17 7 47 15 67 11 28 19 34 35 30 35 -9 42 -37 35 -146 -4 -72 -10 -105 -21
-113 -8 -6 -12 -19 -8 -27 4 -12 -8 -23 -45 -42 -28 -14 -51 -32 -51 -40 0
-17 46 -39 64 -31 6 2 3 5 -6 5 -24 1 -23 16 4 41 30 27 38 25 38 -10 0 -16
-5 -30 -11 -30 -5 0 -7 -4 -4 -10 15 -24 35 -9 35 26 0 19 5 45 12 57 6 12 13
38 14 57 14 162 29 270 38 270 11 1 -65 44 -131 75 -29 14 -31 17 -23 47 4 18
11 46 14 61 4 15 11 25 16 22 5 -3 16 11 25 31 9 22 20 34 27 31 59 -25 120
-47 156 -57 l43 -11 -3 -82 c-3 -79 -4 -82 -28 -85 -50 -5 -71 -13 -68 -25 1
-7 -2 -34 -6 -61 -7 -46 -6 -50 24 -81 35 -36 33 -21 30 -301 l-2 -91 34 -27
33 -26 -957 0 -958 0 0 -225 0 -225 1000 0 1000 0 0 -230 0 -230 -1000 0
-1000 0 0 -225 0 -225 1000 0 1000 0 0 195 0 195 140 0 140 0 0 -100 0 -100
145 0 145 0 0 -95 0 -95 430 0 430 0 0 100 0 100 -139 0 -138 0 -10 193 c-7
149 -10 170 -11 94 l-2 -98 -132 3 -133 3 0 95 0 95 -141 3 -141 3 -10 192
c-7 149 -10 170 -11 95 l-2 -98 -135 0 -135 0 0 101 0 100 -117 -1 c-65 -1
-130 -1 -145 -1 l-28 1 0 190 0 190 -35 0 -35 0 0 63 c0 57 3 67 40 116 22 29
40 63 41 75 0 11 2 28 3 36 2 8 6 74 10 145 8 158 15 259 22 303 4 29 8 32 38
32 l33 0 11 -153 c6 -83 14 -201 17 -261 7 -111 22 -157 69 -195 12 -10 16
-31 16 -82 0 -38 3 -69 6 -69 15 0 65 36 69 51 3 9 6 94 7 190 l2 174 29 27
c28 27 28 30 22 93 -4 36 -12 65 -17 65 -6 0 -8 -14 -5 -35 6 -39 -2 -43 -43
-20 -15 8 -25 23 -26 37 -1 13 -4 55 -7 94 -5 49 -3 76 6 86 7 9 44 25 84 37
40 12 75 26 78 31 14 23 44 9 55 -25 6 -19 16 -34 22 -32 6 1 17 -20 24 -48
17 -63 17 -65 0 -65 -7 0 -31 -12 -52 -27 -21 -14 -46 -27 -54 -28 -30 -2 -40
-15 -30 -40 8 -22 24 -187 25 -265 0 -19 5 -38 12 -43 6 -4 15 -28 19 -52 5
-37 10 -45 27 -45 20 0 20 1 3 13 -12 8 -17 23 -14 41 l3 28 28 -22 c16 -13
26 -29 23 -36 -6 -15 3 -18 28 -8 9 3 16 17 16 29 0 17 -7 25 -27 30 -35 7
-80 41 -70 52 5 4 26 7 48 7 26 -1 38 3 36 10 -4 11 -20 12 -69 2 -32 -6 -33
0 -43 144 -6 91 1 111 43 124 12 4 22 15 22 25 0 21 23 44 33 34 11 -10 8 -18
-14 -42 -21 -22 -21 -24 -5 -73 9 -28 16 -58 16 -67 1 -24 32 -57 62 -64 30
-8 44 -44 19 -50 -9 -3 -2 -5 15 -6 53 -2 68 25 59 114 -6 67 -5 76 12 82 34
12 73 45 88 72 18 36 9 72 -51 200 -24 51 -44 97 -44 103 0 5 -7 22 -15 38 -9
17 -14 30 -11 30 9 0 121 -62 126 -69 3 -5 33 -23 68 -40 61 -31 65 -35 99
-109 48 -106 66 -146 98 -225 16 -37 32 -70 37 -73 4 -3 8 -13 8 -23 0 -9 6
-26 14 -36 13 -18 15 -18 52 10 22 16 41 33 42 37 2 4 10 8 17 8 8 0 34 11 59
25 25 14 48 25 51 25 3 0 27 -43 53 -95 96 -195 112 -225 116 -225 3 0 43 26
88 57 46 32 103 69 128 82 25 14 75 44 113 68 90 59 90 71 -8 187 -22 26 -40
50 -40 54 0 4 22 8 50 9 59 3 75 -6 170 -97 39 -37 108 -102 155 -146 47 -44
117 -110 157 -148 77 -73 101 -80 117 -33 10 27 5 33 -124 155 -223 210 -290
275 -287 279 2 1 42 10 90 18 48 8 116 25 151 36 l64 21 94 -63 c51 -35 95
-66 98 -69 19 -22 172 -130 184 -130 17 0 46 37 46 60 0 9 -12 23 -27 32 -16
9 -37 24 -48 32 -11 9 -60 42 -108 75 -49 32 -100 68 -113 80 -13 12 -28 21
-33 21 -35 0 -7 25 82 75 56 31 106 63 110 71 10 18 32 18 50 0 17 -18 162
-86 182 -86 19 0 40 43 32 65 -4 8 -19 20 -34 26 -16 6 -52 22 -81 37 -40 20
-50 29 -40 37 22 17 83 97 111 145 25 44 41 62 155 166 61 55 84 99 105 200 8
39 34 111 58 159 l44 88 7 151 c4 83 14 178 22 211 19 76 20 138 2 201 -8 27
-17 99 -21 159 -8 134 -10 160 -20 208 -6 32 -5 37 12 37 11 0 28 7 39 15 18
14 18 14 -11 15 -24 0 -30 4 -31 23 0 12 -2 31 -3 42 -5 31 0 121 6 108 10
-25 19 -12 22 28 1 23 -5 56 -13 73 -8 17 -16 43 -18 58 -2 14 -9 32 -15 39
-6 8 -14 41 -18 74 -5 43 -3 56 4 45 7 -9 11 -10 11 -3 0 6 -5 15 -10 18 -6 4
-10 14 -8 23 1 10 -1 23 -6 31 -5 8 -4 16 4 21 7 4 8 10 3 13 -12 7 -14 137
-3 137 5 0 7 17 5 38 -10 114 -9 141 10 166 14 18 15 18 57 -2 48 -22 118 -35
118 -22 0 5 -10 12 -22 16 -27 8 -98 54 -98 63 0 3 10 11 23 16 12 6 21 16 19
23 -4 23 29 25 58 3 l29 -21 17 32 c44 88 116 168 232 260 34 27 62 51 62 53
0 2 -51 -23 -112 -55 -122 -63 -187 -87 -264 -98 l-49 -7 3 -48 c4 -46 3 -47
-27 -47 -16 0 -33 -5 -36 -10 -4 -6 -11 -8 -16 -5 -5 4 -9 1 -9 -5 0 -24 33
-77 68 -107 20 -18 32 -33 25 -33 -22 0 -86 64 -104 105 -10 22 -19 55 -19 73
0 20 -4 31 -10 27 -5 -3 -10 -25 -10 -48 -1 -59 -27 -81 -200 -164 -208 -101
-190 -101 -192 -1 l-1 83 -7 -60 c-4 -33 -8 -48 -9 -32 -6 56 0 222 6 190 9
-48 18 -20 20 64 3 102 13 120 59 103 37 -15 143 -15 157 -1 8 8 3 11 -18 11
-35 0 -94 16 -115 30 -13 9 -12 13 8 27 30 21 29 42 -3 35 -20 -3 -25 0 -25
17 0 21 24 29 35 11 3 -5 16 -10 29 -10 12 0 31 -7 42 -15 10 -8 22 -15 26
-15 4 0 23 31 43 69 34 64 109 148 215 240 49 43 32 38 -47 -12 -117 -73 -222
-120 -281 -125 -58 -5 -57 -3 -36 -74 4 -14 -1 -18 -25 -18 -23 0 -33 -7 -45
-31 -15 -30 -14 -33 11 -66 15 -20 46 -44 68 -54 25 -11 33 -18 21 -18 -39 -2
-101 38 -125 80 -27 49 -42 95 -33 104 6 6 11 105 5 105 -2 0 -10 -17 -19 -37
-11 -27 -14 -53 -9 -90 4 -32 3 -53 -3 -53 -5 0 -12 -10 -16 -22 -3 -13 -26
-35 -53 -51 -26 -15 -63 -39 -82 -53 -57 -41 -64 -35 -100 79 -37 118 -71 275
-71 330 0 30 4 37 19 37 11 0 22 4 26 10 3 5 34 9 69 8 77 -1 128 20 56 24
-25 1 -58 1 -73 0 -56 -4 -165 99 -154 145 3 14 7 11 16 -12 14 -33 46 -72 73
-86 22 -12 64 13 71 42 5 17 11 19 45 13 l39 -6 11 44 c13 50 66 136 138 223
28 33 54 66 58 74 11 17 10 16 -113 -67 -90 -62 -203 -122 -228 -122 -15 0
-16 -5 -4 -47 8 -28 6 -34 -26 -62 -20 -18 -37 -30 -38 -29 -17 21 -35 76 -35
110 -1 34 -3 39 -11 26 -19 -34 -22 -112 -5 -145 14 -27 14 -32 1 -43 -8 -7
-15 -18 -15 -24 0 -13 -207 -217 -389 -385 l-113 -105 6 -62 c4 -43 20 -91 50
-156 24 -51 49 -123 56 -161 7 -37 16 -70 21 -73 5 -3 45 20 90 50 44 31 84
56 89 56 11 0 20 -37 20 -84 0 -42 18 -149 56 -341 20 -97 23 -138 18 -215 -6
-96 6 -185 41 -310 20 -71 20 -255 0 -389 -12 -78 -14 -124 -7 -186 11 -99 -6
-253 -37 -335 -34 -88 -146 -270 -202 -327 -28 -29 -52 -53 -54 -53 -1 0 -8
14 -16 31 l-13 32 -13 -64 c-7 -35 -17 -65 -23 -67 -5 -2 -10 -10 -10 -17 0
-15 -69 -105 -116 -151 -44 -44 -124 -97 -132 -89 -4 4 4 15 18 26 84 65 101
94 36 64 -37 -18 -62 -13 -49 9 5 7 31 39 58 71 79 90 121 150 141 199 30 72
48 62 46 -24 -1 -32 0 -33 7 -10 16 45 11 74 -14 92 l-24 18 -36 -74 c-20 -41
-47 -86 -60 -101 -14 -14 -25 -28 -25 -30 0 -10 -86 -97 -120 -120 -38 -27
-64 -27 -54 -1 4 9 -2 12 -18 9 -18 -3 -27 4 -41 33 -10 20 -15 39 -12 42 3 3
5 0 5 -6 0 -7 5 -12 10 -12 6 0 10 19 10 43 -1 41 -1 42 -15 17 -10 -19 -15
-22 -19 -10 -9 22 -64 23 -69 2 -3 -10 -5 -6 -6 10 -1 30 -21 49 -22 21 0 -16
-1 -16 -8 2 -5 11 -4 21 0 23 5 2 3 10 -5 18 -30 29 -11 77 56 145 80 82 100
107 117 146 7 17 21 39 31 48 18 16 22 14 77 -36 81 -75 84 -81 64 -96 -14
-12 -14 -13 4 -12 24 2 57 -10 67 -25 4 -6 9 -8 12 -5 3 3 -8 20 -24 38 -17
18 -30 35 -30 39 0 4 -16 18 -35 32 -18 14 -52 46 -74 71 l-40 46 35 109 c23
73 40 154 51 246 l16 138 -26 87 c-43 141 -47 176 -46 338 0 85 -2 158 -5 163
-2 4 -20 62 -40 127 -34 118 -48 228 -31 255 11 17 -57 -24 -110 -66 -26 -21
-45 -30 -53 -25 -8 4 -18 39 -24 77 -5 38 -17 96 -25 129 -8 33 -18 82 -22
109 l-6 49 -114 -103 -114 -102 -14 27 c-16 29 -10 41 21 47 11 1 21 9 24 16
3 9 -3 11 -21 7 -28 -8 -71 11 -61 26 3 6 24 7 50 3 43 -6 45 -5 86 41 23 26
51 50 63 55 12 5 32 25 43 44 l21 36 -23 0 c-46 0 -168 73 -243 146 -84 82
-97 82 -22 0 28 -31 45 -56 38 -56 -8 0 -23 -7 -33 -15 -19 -15 -19 -15 4 -40
33 -35 19 -31 -40 11 -74 53 -140 152 -140 212 -1 26 -1 26 -15 8 -8 -11 -15
-23 -15 -26 0 -16 82 -129 120 -165 63 -60 66 -71 22 -70 -33 0 -37 3 -37 25
0 17 -7 26 -20 29 -17 3 -18 1 -6 -13 12 -14 10 -16 -13 -16 -23 0 -25 2 -16
26 13 33 13 34 -6 34 -8 0 -13 -4 -9 -9 3 -5 1 -12 -5 -16 -19 -12 -28 5 -20
40 4 19 4 37 0 40 -5 3 -10 -5 -12 -17 -2 -14 -11 -24 -23 -25 -11 -2 -14 0
-8 3 10 4 9 12 -2 34 -19 37 -19 37 7 44 19 4 20 8 10 18 -11 11 -16 10 -25
-3 -31 -41 -51 -41 -115 0 -72 47 -203 111 -225 111 -11 0 -16 7 -14 21 1 17
-4 22 -25 24 -28 4 -39 -9 -15 -18 6 -2 9 -7 6 -11 -3 -3 -16 3 -29 14 -13 11
-26 20 -30 20 -4 0 -31 -16 -59 -35 -55 -38 -61 -36 -32 11 15 25 24 31 44 27
14 -3 28 1 32 8 6 9 -2 10 -36 4 -24 -4 -69 -9 -99 -11 -88 -4 -160 -16 -160
-26 0 -6 39 -9 100 -6 55 2 100 0 100 -4 0 -5 -9 -8 -20 -8 -19 0 -20 -7 -20
-95 l0 -95 -49 0 c-27 0 -64 -3 -82 -6 -28 -4 -31 -3 -16 6 14 9 17 25 16 93
-1 71 -3 84 -22 100 l-22 17 25 20 c17 13 20 20 10 20 -23 0 -34 -12 -54 -53
-14 -31 -20 -36 -32 -26 -7 6 -12 15 -9 19 3 5 -3 11 -12 13 -11 3 -8 5 10 6
15 0 27 6 27 12 0 7 -10 9 -27 4 -41 -10 -93 -36 -93 -46 0 -5 -6 -9 -12 -9
-17 0 -163 -75 -213 -110 -22 -15 -55 -42 -72 -59 -18 -17 -35 -31 -37 -31
-11 0 -105 -103 -167 -185 -38 -49 -73 -95 -78 -101 -17 -21 -97 -179 -120
-239 -13 -33 -28 -64 -33 -69 -11 -13 -10 10 1 32 5 9 27 55 48 101 l38 84
-95 89 c-52 49 -103 94 -112 99 -16 9 -17 7 -6 -16 9 -21 8 -38 -10 -93 -12
-37 -27 -102 -32 -145 -11 -86 -25 -121 -43 -110 -7 4 -34 23 -62 44 -27 20
-61 42 -75 49 -23 12 -24 12 -11 -3 19 -24 6 -117 -40 -276 -38 -130 -39 -139
-39 -288 0 -144 -2 -164 -35 -289 l-35 -135 16 -122 c16 -126 47 -262 66 -284
16 -20 26 -15 30 15 3 24 7 27 46 30 26 2 42 8 42 16 0 18 110 130 146 149
l30 15 24 -126 c13 -70 24 -129 25 -132 0 -3 3 -9 7 -15 3 -5 8 -23 9 -40 4
-31 6 -31 -61 -34 -22 -1 -23 -3 -7 -12 9 -5 21 -8 26 -5 14 9 45 -20 38 -36
-7 -19 -62 -28 -78 -14 -8 8 -10 7 -7 -3 2 -8 17 -19 34 -25 16 -6 30 -19 30
-28 1 -14 -5 -16 -35 -12 -20 2 -31 1 -26 -4 6 -4 19 -18 30 -31 l20 -24 -34
19 c-39 22 -168 145 -196 187 -10 15 -20 26 -22 23 -7 -7 76 -126 87 -126 6 0
10 -5 10 -10 0 -6 11 -21 25 -34 13 -13 22 -26 19 -29 -3 -3 1 -16 10 -29 9
-12 16 -30 16 -39 0 -10 6 -19 13 -22 7 -2 8 -8 3 -13 -5 -5 -11 -4 -13 4 -3
6 -9 12 -15 12 -56 0 -248 234 -248 302 0 10 -4 18 -10 18 -5 0 -10 -3 -10 -8
0 -4 -48 -56 -106 -115 -101 -103 -126 -138 -71 -103 14 10 32 14 43 10 16 -6
17 -5 7 7 -7 7 -13 17 -13 21 0 13 132 138 141 132 4 -2 20 -27 35 -54 15 -28
31 -50 36 -50 4 0 8 -6 8 -14 0 -8 33 -47 74 -88 l74 -75 -4 -53 c-3 -42 -9
-59 -29 -78 -14 -12 -25 -18 -25 -12 0 6 7 13 15 16 8 4 15 14 15 23 0 10 -3
12 -8 5 -9 -14 -55 -39 -66 -36 -4 2 -14 -5 -21 -14 -11 -15 -13 -15 -20 7 -8
24 -8 24 -12 -4 -3 -16 -2 -36 2 -45 5 -14 7 -14 15 -2 8 12 10 12 10 2 0 -8
-9 -27 -21 -43 -16 -22 -26 -28 -41 -23 -17 5 -19 3 -13 -15 8 -25 -2 -27 -35
-4 -86 58 -182 171 -225 264 -16 35 -30 65 -31 67 -1 2 -14 -4 -29 -14 -24
-15 -26 -21 -20 -58 4 -23 11 -45 15 -50 5 -5 5 7 1 25 -17 83 16 93 49 15 12
-30 35 -68 51 -86 16 -17 29 -34 29 -36 0 -3 27 -35 59 -71 33 -37 57 -72 54
-79 -7 -19 -20 -17 -60 8 l-35 21 12 -22 c6 -12 31 -36 55 -53 50 -35 51 -57
2 -31 -99 51 -240 235 -253 330 -5 44 -10 53 -33 61 -20 7 -46 44 -108 154
-108 191 -117 227 -118 468 -1 102 -7 230 -14 284 -18 132 -10 280 20 366 19
55 22 89 24 221 1 112 8 187 24 270 12 63 29 148 36 189 8 42 15 94 15 116 0
53 10 104 20 104 5 0 45 -25 90 -55 45 -30 85 -55 90 -55 4 0 13 28 19 63 15
77 37 138 69 196 15 25 30 76 37 118 l12 75 -76 72 c-42 40 -103 97 -136 126
-121 109 -268 256 -291 293 -24 36 -24 39 -10 81 12 34 12 52 4 87 -6 24 -15
49 -21 54 -6 7 -8 1 -4 -16 7 -29 -7 -85 -27 -112 -13 -16 -16 -15 -46 13 -29
27 -31 33 -25 70 5 30 4 40 -7 40 -28 0 -156 70 -246 134 -51 36 -95 66 -98
66 -2 0 32 -47 76 -104z m192 -94 l56 -30 -39 -38 c-21 -21 -40 -36 -41 -33
-2 2 -7 11 -13 20 -15 25 -92 130 -122 169 l-28 34 65 -46 c36 -25 90 -59 122
-76z m4907 60 c-31 -35 -96 -124 -119 -162 -8 -12 -15 -9 -45 20 -19 18 -35
37 -35 40 0 3 24 18 53 33 29 14 79 46 112 71 33 24 62 43 64 41 2 -3 -11 -22
-30 -43z m-4803 -183 c8 -14 -31 -53 -45 -45 -12 8 -15 39 -4 49 10 11 41 8
49 -4z m4602 -23 c2 -10 -1 -23 -7 -29 -14 -14 -41 9 -41 35 0 26 43 21 48 -6z
m-138 -206 c0 -5 -2 -10 -4 -10 -3 0 -8 5 -11 10 -3 6 -1 10 4 10 6 0 11 -4
11 -10z m-4955 -158 c0 -12 -39 -72 -47 -72 -4 0 -8 7 -8 15 0 8 -4 15 -8 15
-4 0 -34 31 -66 70 l-57 70 93 -45 c51 -25 93 -49 93 -53z m4944 16 c1 -56 -2
-69 -10 -55 -6 10 -8 41 -5 70 6 63 5 57 10 57 2 0 4 -33 5 -72z m736 26 c-20
-22 -50 -58 -68 -81 -18 -23 -34 -42 -37 -43 -3 0 -15 18 -27 39 l-22 39 92
44 c51 25 93 44 95 43 2 -2 -13 -20 -33 -41z m-5076 -18 c1 -30 -3 -57 -8 -60
-8 -5 -9 57 -2 107 3 23 8 0 10 -47z m-7 -98 c-7 -7 -12 -8 -12 -2 0 14 12 26
19 19 2 -3 -1 -11 -7 -17z m4348 -4 c0 -8 -4 -12 -10 -9 -5 3 -10 10 -10 16 0
5 5 9 10 9 6 0 10 -7 10 -16z m-4877 -14 c-6 -22 -43 -28 -43 -7 0 18 10 27
31 27 12 0 16 -6 12 -20z m537 -17 c0 -5 -5 -15 -10 -23 -8 -12 -10 -11 -10 8
0 12 5 22 10 22 6 0 10 -3 10 -7z m4340 -40 c0 -20 -3 -33 -7 -30 -9 10 -10
67 0 67 4 0 7 -16 7 -37z m-4340 -7 c0 -3 -4 -8 -10 -11 -5 -3 -10 -1 -10 4 0
6 5 11 10 11 6 0 10 -2 10 -4z m0 -50 c0 -3 -4 -8 -10 -11 -5 -3 -10 -1 -10 4
0 6 5 11 10 11 6 0 10 -2 10 -4z m-434 -33 c-10 -10 -19 5 -10 18 6 11 8 11
12 0 2 -7 1 -15 -2 -18z m5204 -4 c0 -6 -4 -7 -10 -4 -5 3 -10 11 -10 16 0 6
5 7 10 4 6 -3 10 -11 10 -16z m-2430 -12 c0 -8 -9 -22 -20 -32 -13 -12 -20
-14 -20 -5 0 7 -7 10 -16 6 -14 -5 -15 -4 -5 8 7 8 19 12 27 9 8 -3 14 1 14
11 0 9 5 16 10 16 6 0 10 -6 10 -13z m-3470 -47 c9 -4 30 -11 49 -15 18 -4 35
-13 37 -20 5 -13 -35 -85 -48 -85 -4 0 -17 15 -29 33 -13 17 -26 34 -29 37 -3
3 -25 27 -50 54 l-45 48 50 -22 c28 -13 57 -26 65 -30z m710 5 c0 -5 -5 -3
-10 5 -5 8 -10 20 -10 25 0 6 5 3 10 -5 5 -8 10 -19 10 -25z m5170 -2 c-11
-17 -11 -17 -6 0 3 10 6 24 7 30 0 9 2 9 5 0 3 -7 0 -20 -6 -30z m769 -10
c-20 -21 -50 -57 -68 -80 -32 -42 -51 -54 -51 -32 0 6 -9 22 -20 36 -27 34
-26 39 13 53 17 6 40 16 49 21 10 5 26 9 35 9 10 0 27 7 37 15 37 28 40 15 5
-22z m-5526 12 c-3 -9 -8 -14 -10 -11 -3 3 -2 9 2 15 9 16 15 13 8 -4z m1962
-5 c3 -5 1 -10 -4 -10 -6 0 -11 5 -11 10 0 6 2 10 4 10 3 0 8 -4 11 -10z
m-2368 -82 c-2 -13 -4 -5 -4 17 -1 22 1 32 4 23 2 -10 2 -28 0 -40z m431 -28
c0 -8 -6 1 -13 20 -7 19 -13 42 -13 50 0 8 6 -1 13 -20 7 -19 13 -42 13 -50z
m2578 43 c22 -21 54 -48 70 -61 l29 -23 -26 5 c-25 5 -27 3 -39 -54 -13 -62
-10 -80 12 -63 7 5 32 15 56 22 35 10 41 15 32 26 -20 24 5 24 33 -1 26 -22
27 -29 3 -25 -5 1 -30 -5 -55 -13 -146 -48 -149 -49 -185 -32 -38 18 -37 8 -5
133 11 40 19 84 19 98 0 33 8 32 56 -12z m2154 17 c0 -5 -4 -10 -10 -10 -5 0
-10 5 -10 10 0 6 5 10 10 10 6 0 10 -4 10 -10z m-5191 -152 c0 -42 -3 -79 -7
-82 -5 -3 -9 50 -10 117 0 87 2 111 8 82 4 -22 8 -75 9 -117z m4766 123 c3 -5
1 -12 -5 -16 -5 -3 -10 1 -10 9 0 18 6 21 15 7z m412 -23 c-3 -8 -6 -5 -6 6
-1 11 2 17 5 13 3 -3 4 -12 1 -19z m-5697 -24 c0 -27 -20 -54 -35 -48 -20 8
-19 41 3 53 24 15 32 13 32 -5z m2595 -8 c-18 -13 -18 -15 9 -47 72 -86 86
-98 100 -93 18 7 40 69 31 84 -4 6 -4 18 -1 27 5 13 12 9 31 -17 l25 -34 -27
-29 c-16 -16 -50 -44 -78 -62 -27 -19 -67 -50 -89 -69 -45 -42 -52 -45 -31
-12 15 23 14 26 -35 82 -27 33 -50 63 -50 67 0 5 -10 6 -22 2 l-23 -6 21 18
c11 10 33 27 49 38 15 11 37 30 49 42 11 12 30 22 40 22 19 1 19 1 1 -13z
m3102 -8 c-3 -8 -6 -5 -6 6 -1 11 2 17 5 13 3 -3 4 -12 1 -19z m577 16 c16 -6
22 -45 9 -57 -11 -12 -33 14 -33 39 0 26 1 27 24 18z m-5277 -26 c-3 -8 -6 -5
-6 6 -1 11 2 17 5 13 3 -3 4 -12 1 -19z m2173 2 c0 -5 -2 -10 -4 -10 -3 0 -8
5 -11 10 -3 6 -1 10 4 10 6 0 11 -4 11 -10z m570 0 c0 -5 -5 -10 -11 -10 -5 0
-7 5 -4 10 3 6 8 10 11 10 2 0 4 -4 4 -10z m-3180 -10 c0 -5 -5 -10 -11 -10
-5 0 -7 5 -4 10 3 6 8 10 11 10 2 0 4 -4 4 -10z m4700 6 c0 -3 -4 -8 -10 -11
-5 -3 -10 -1 -10 4 0 6 5 11 10 11 6 0 10 -2 10 -4z m438 -31 c-3 -3 -9 2 -12
12 -6 14 -5 15 5 6 7 -7 10 -15 7 -18z m-5138 -20 c0 -14 -4 -25 -9 -25 -4 0
-6 11 -3 25 2 14 6 25 8 25 2 0 4 -11 4 -25z m5137 -15 c1 -11 -2 -18 -8 -15
-11 7 -12 35 -1 35 4 0 8 -9 9 -20z m-5620 -32 c-3 -7 -5 -2 -5 12 0 14 2 19
5 13 2 -7 2 -19 0 -25z m963 22 c0 -5 -7 -10 -15 -10 -8 0 -15 5 -15 10 0 6 7
10 15 10 8 0 15 -4 15 -10z m2173 3 c-7 -2 -19 -2 -25 0 -7 3 -2 5 12 5 14 0
19 -2 13 -5z m2027 -13 c0 -5 -9 -10 -20 -10 -11 0 -20 5 -20 10 0 6 9 10 20
10 11 0 20 -4 20 -10z m940 -5 c0 -8 -4 -15 -10 -15 -5 0 -10 7 -10 15 0 8 5
15 10 15 6 0 10 -7 10 -15z m-2856 -10 c163 -68 332 -229 421 -402 17 -32 33
-60 37 -63 14 -11 60 -147 59 -174 -1 -15 3 -42 8 -60 19 -60 50 -202 62 -286
15 -104 33 -132 25 -40 -4 52 -4 58 4 30 22 -83 27 -370 9 -535 -20 -187 -92
-444 -160 -567 -22 -39 -39 -73 -39 -75 0 -12 -84 -133 -91 -133 -5 0 -9 -6
-9 -13 0 -17 -138 -153 -146 -144 -4 4 10 23 32 42 21 19 34 34 29 35 -6 0
-29 -18 -50 -40 -21 -22 -33 -40 -25 -40 26 0 -31 -48 -99 -83 -36 -19 -90
-42 -120 -51 -64 -19 -248 -22 -301 -5 -19 6 -42 12 -50 13 -44 6 -187 96
-182 115 1 6 -5 11 -14 11 -36 0 -210 208 -264 315 -38 75 -110 273 -109 300
0 6 11 -17 25 -50 25 -58 98 -210 131 -270 53 -98 191 -250 277 -306 339 -220
738 -56 963 396 61 121 130 354 152 510 19 135 25 313 11 330 -10 12 -10 19
-2 27 31 31 0 85 -33 58 -8 -7 -21 -10 -29 -7 -7 3 -13 0 -13 -6 1 -39 -5 -57
-22 -67 -24 -12 -71 6 -71 28 0 11 -7 13 -27 8 -57 -13 -58 -13 -55 22 3 47
-32 43 -55 -8 -12 -25 -12 -25 -12 8 -1 25 -5 32 -21 32 -10 0 -23 -7 -28 -16
-8 -15 -15 -14 -67 10 -64 29 -69 30 -60 16 3 -6 -4 -10 -16 -10 -18 0 -20 3
-11 12 9 9 1 16 -36 31 -87 34 -103 37 -109 21 -3 -8 -19 -14 -38 -14 -40 0
-53 -16 -31 -38 11 -12 36 -16 86 -17 54 -1 74 -5 88 -19 16 -18 16 -18 -20
-13 -24 4 -38 2 -38 -5 0 -7 -17 -9 -47 -5 -31 4 -41 3 -28 -3 11 -5 30 -9 42
-9 12 -1 35 -9 52 -18 25 -15 33 -15 40 -5 11 19 128 5 135 -15 5 -12 10 -10
26 8 17 21 21 22 30 9 16 -23 8 -115 -10 -115 -9 0 -17 12 -20 29 -3 16 -11
31 -18 34 -9 3 -11 -3 -6 -22 5 -20 2 -26 -10 -26 -9 0 -19 7 -22 15 -4 8 -10
15 -16 15 -5 0 -6 -6 -3 -12 4 -7 -2 -3 -12 8 -10 12 -29 27 -42 34 -21 11
-23 10 -18 -3 5 -12 -1 -15 -25 -11 -31 3 -58 -9 -58 -28 0 -6 7 -7 16 -4 10
4 14 1 11 -6 -2 -7 -11 -12 -20 -10 -11 2 -15 -2 -11 -11 3 -8 -2 -21 -10 -30
-8 -8 -12 -17 -9 -21 12 -12 23 -6 23 12 0 28 69 56 121 49 53 -7 76 -27 31
-27 -58 0 -132 -47 -94 -61 12 -4 5 -14 -33 -42 -28 -20 -55 -37 -61 -37 -14
0 -51 -40 -37 -40 16 0 70 29 83 45 19 22 32 18 20 -6 -7 -11 -10 -23 -7 -25
2 -3 11 12 20 34 14 35 67 76 67 52 0 -6 -4 -10 -10 -10 -18 0 -41 -60 -35
-93 5 -26 2 -35 -15 -45 -15 -9 -25 -10 -34 -3 -18 15 -61 6 -84 -17 -13 -13
-35 -22 -54 -23 -44 -1 -76 -13 -59 -23 8 -5 10 -23 7 -54 -3 -26 -8 -72 -12
-102 -4 -35 -19 -78 -41 -118 -29 -53 -33 -67 -24 -90 l9 -27 1 28 c1 29 18
37 27 12 6 -14 -16 -45 -31 -45 -4 0 -20 -9 -35 -20 -18 -13 -31 -16 -35 -10
-14 23 -25 7 -25 -37 0 -43 1 -45 14 -27 19 26 30 12 19 -23 -7 -18 -16 -27
-27 -25 -9 2 -16 -2 -16 -8 0 -5 4 -10 9 -10 8 0 24 -92 26 -140 0 -8 3 -20 8
-27 4 -6 3 -14 -2 -17 -18 -12 -29 16 -40 109 -14 109 -44 183 -77 191 -20 5
-22 10 -17 41 5 27 3 34 -6 29 -7 -5 -10 -15 -7 -23 5 -13 -1 -14 -40 -8 -53
8 -84 24 -84 42 0 7 -4 13 -9 13 -16 0 -19 -24 -6 -40 10 -11 11 -29 3 -75
-11 -65 -4 -173 12 -189 12 -12 13 -36 2 -36 -19 0 -42 61 -42 112 -1 29 -7
85 -16 123 -8 39 -15 76 -16 84 -1 8 -9 16 -18 18 -12 3 -20 19 -24 53 -6 41
-2 58 22 109 23 48 26 61 15 66 -26 9 -55 -15 -50 -41 2 -13 1 -24 -4 -24 -29
0 -10 72 24 87 12 6 31 7 42 2 11 -4 45 -5 76 -2 33 3 64 1 77 -6 12 -6 45
-16 74 -21 29 -6 60 -13 69 -15 11 -4 18 8 27 47 7 29 15 64 19 77 l6 24 -78
-7 c-43 -4 -82 -9 -86 -12 -9 -5 -243 -5 -314 1 -27 2 -76 5 -108 7 -57 2 -57
3 -66 38 -20 77 -31 188 -30 291 1 60 5 109 8 109 3 0 16 3 29 6 12 4 22 2 22
-4 0 -5 -9 -12 -20 -15 -11 -3 -20 -10 -20 -16 0 -5 26 3 58 18 31 16 80 32
107 35 28 4 58 9 68 12 24 7 22 28 -3 21 -26 -7 -26 10 0 18 11 4 18 11 15 16
-4 5 2 8 12 7 28 -3 93 13 93 23 0 5 10 9 23 8 21 0 21 -1 2 -9 -19 -8 -19 -9
3 -9 13 -1 22 -7 22 -16 0 -18 26 -19 104 -4 56 12 107 5 158 -22 10 -5 29 -9
42 -9 13 0 26 -7 30 -15 3 -8 10 -15 16 -15 5 0 10 7 10 15 0 8 6 15 13 15 6
1 1 7 -13 15 -14 7 -37 11 -52 8 -20 -4 -34 2 -60 25 -22 22 -35 27 -40 19 -5
-8 -14 -5 -31 11 -13 12 -36 22 -51 22 -44 0 -21 18 40 30 70 15 102 7 110
-25 5 -19 11 -24 24 -20 11 3 20 0 24 -10 10 -28 28 -17 21 14 -5 25 -3 30 21
38 26 9 25 10 -34 32 -58 21 -64 21 -106 7 -25 -9 -75 -18 -113 -21 -37 -4
-81 -11 -96 -17 -15 -6 -36 -12 -45 -13 -9 -1 -26 -5 -37 -9 -37 -15 -110 -47
-127 -56 -9 -5 -59 -26 -110 -46 -51 -20 -99 -39 -105 -41 -21 -8 -16 54 5 66
16 10 16 10 -1 11 -16 0 -17 6 -12 48 32 237 88 430 181 615 54 107 109 184
189 262 86 85 166 135 271 171 71 24 89 26 184 21 142 -7 230 -41 370 -143 21
-16 13 -6 -18 24 -30 27 -90 68 -134 91 -80 41 -92 54 -24 26z m864 -38 c2
-11 -6 -17 -25 -19 l-28 -4 30 -14 c28 -13 29 -14 7 -18 -25 -4 -112 34 -112
50 0 5 6 8 12 6 7 -3 21 6 31 18 17 22 21 23 50 11 18 -8 33 -21 35 -30z
m-3622 -96 c2 -55 1 -101 -3 -101 -5 0 -10 48 -11 107 -4 136 7 130 14 -6z
m486 -2 c7 -105 5 -109 -56 -109 l-39 0 7 69 c7 79 21 125 36 116 6 -3 13 1
16 10 15 38 29 3 36 -86z m4633 -77 c-10 -11 -11 4 -6 93 l6 90 3 -89 c2 -49
0 -91 -3 -94z m-457 152 c5 -9 13 -15 18 -14 11 2 31 -72 36 -132 3 -41 2 -43
-26 -46 -15 -2 -39 -1 -51 2 -24 6 -24 4 -9 154 6 53 16 65 32 36z m-4709
-144 c-5 -8 -8 20 -7 65 l1 80 7 -65 c4 -36 3 -72 -1 -80z m3599 104 c18 -5
15 -22 -4 -20 -9 0 -19 -5 -22 -13 -3 -8 0 -11 7 -7 6 4 11 3 11 -1 0 -13 -40
-34 -50 -28 -6 3 -9 24 -8 45 1 41 6 43 66 24z m1614 -55 c0 -34 -3 -64 -6
-67 -3 -3 -6 28 -6 68 0 40 3 70 7 67 3 -4 6 -34 5 -68z m-5627 -167 c-7 -130
-18 -161 -15 -45 1 80 8 206 11 213 8 20 10 -66 4 -168z m6044 106 c-1 -29 1
-100 5 -158 4 -63 3 -99 -3 -90 -11 19 -24 260 -15 283 11 29 14 19 13 -35z
m-2199 -24 c0 -8 14 -42 31 -75 17 -34 28 -64 25 -67 -3 -3 -6 0 -6 6 0 20
-24 14 -104 -24 -48 -23 -76 -42 -76 -53 -1 -18 -79 126 -80 147 0 9 4 9 18 1
14 -9 33 -3 95 26 45 21 77 43 77 51 0 9 5 12 10 9 6 -3 10 -13 10 -21z
m-1570 -6 c54 -59 -9 -230 -99 -268 -35 -14 -93 -6 -111 15 -7 8 -15 34 -17
58 -7 55 32 142 83 186 44 40 111 44 144 9z m3310 12 c0 -5 -2 -10 -4 -10 -3
0 -8 5 -11 10 -3 6 -1 10 4 10 6 0 11 -4 11 -10z m-3113 -32 c-95 -119 -177
-298 -226 -495 -52 -205 -62 -281 -69 -483 -6 -179 -7 -188 -14 -115 -9 91 5
334 28 461 35 206 164 508 270 633 34 41 44 40 11 -1z m-1998 -20 c1 -5 -3 -8
-9 -8 -5 0 -10 12 -9 28 0 24 1 25 9 7 5 -11 9 -23 9 -27z m5103 -3 c-6 -34
-12 -32 -12 6 0 16 4 28 9 25 4 -3 6 -17 3 -31z m-5157 5 c-3 -5 -13 -10 -21
-10 -8 0 -14 5 -14 10 0 6 9 10 21 10 11 0 17 -4 14 -10z m5225 -10 c0 -5 -7
-10 -15 -10 -8 0 -15 5 -15 10 0 6 7 10 15 10 8 0 15 -4 15 -10z m-5165 -50
c-3 -5 -14 -10 -23 -10 -15 0 -15 2 -2 10 20 13 33 13 25 0z m-99 -17 c-3 -10
-8 -31 -11 -48 -4 -16 -8 -40 -11 -52 -8 -39 14 -25 23 15 8 32 9 25 10 -46
l0 -83 -41 6 c-22 4 -43 9 -45 11 -7 6 63 214 72 214 5 0 6 -8 3 -17z m5194 7
c13 -8 13 -10 -2 -10 -9 0 -20 5 -23 10 -8 13 5 13 25 0z m90 -12 c0 -5 6 -24
14 -41 7 -18 23 -61 33 -95 22 -69 21 -70 -36 -74 l-34 -3 -1 85 c-1 47 0 76
2 65 7 -32 22 -68 27 -63 5 5 -10 105 -21 132 -5 14 -4 17 4 12 7 -4 12 -12
12 -18z m-5214 -175 c6 -63 5 -73 -10 -79 -9 -4 -19 -4 -23 -1 -3 3 -2 43 2
87 9 97 22 93 31 -7z m71 -43 c-1 -17 -9 -26 -23 -28 -18 -3 -22 4 -28 44 -3
26 -5 61 -5 78 1 26 3 24 14 -19 l13 -50 2 55 2 55 14 -55 c8 -30 13 -66 11
-80z m-527 105 c0 -8 -4 -15 -10 -15 -5 0 -7 7 -4 15 4 8 8 15 10 15 2 0 4 -7
4 -15z m5557 -45 l11 45 1 -67 c1 -69 -6 -83 -37 -74 -16 5 -17 13 -11 64 4
31 8 66 10 77 1 11 5 -5 8 -35 l7 -55 11 45z m63 -41 c0 -42 -4 -69 -11 -69
-5 0 -7 4 -4 10 4 6 -1 7 -11 3 -15 -6 -17 0 -12 55 3 33 9 66 13 71 15 25 25
-4 25 -70z m440 66 c0 -8 -2 -15 -4 -15 -2 0 -6 7 -10 15 -3 8 -1 15 4 15 6 0
10 -7 10 -15z m-4100 -75 c-7 -17 -15 -28 -18 -26 -2 3 1 19 8 36 7 17 15 28
18 26 2 -3 -1 -19 -8 -36z m-39 -115 c-11 -33 -20 -54 -20 -46 -1 20 33 125
36 114 2 -5 -5 -36 -16 -68z m4199 65 c0 -5 -2 -10 -4 -10 -3 0 -8 5 -11 10
-3 6 -1 10 4 10 6 0 11 -4 11 -10z m-6180 -14 c0 -3 -4 -8 -10 -11 -5 -3 -10
-1 -10 4 0 6 5 11 10 11 6 0 10 -2 10 -4z m3822 -31 c3 -13 1 -22 -3 -19 -9 5
-13 44 -5 44 2 0 6 -11 8 -25z m-3837 -15 c-3 -5 -12 -10 -18 -10 -7 0 -6 4 3
10 19 12 23 12 15 0z m6210 -10 c3 -6 -1 -7 -9 -4 -18 7 -21 14 -7 14 6 0 13
-4 16 -10z m-75 -41 c0 -6 -4 -7 -10 -4 -5 3 -10 11 -10 16 0 6 5 7 10 4 6 -3
10 -11 10 -16z m-4050 -39 l5 -45 13 37 c17 48 34 60 68 52 l27 -7 -6 -131
c-3 -72 -9 -139 -13 -149 -6 -16 -16 -17 -105 -11 -91 6 -99 5 -99 -11 0 -10
-2 -16 -5 -13 -3 3 2 65 10 138 19 162 33 194 80 188 16 -2 21 -13 25 -48z
m1860 42 c0 -5 6 -9 13 -10 6 -1 53 -15 104 -33 l91 -31 4 -40 c2 -21 1 -42
-2 -46 -3 -4 -36 -32 -75 -61 -38 -30 -80 -66 -92 -80 l-23 -26 0 37 c0 21 -5
57 -12 81 -12 47 -4 93 12 67 7 -11 11 -12 24 0 12 9 15 22 10 48 -5 27 -4 34
7 30 8 -3 15 -14 17 -26 3 -21 5 -21 33 -6 37 19 30 32 -22 40 -22 4 -42 11
-45 15 -9 15 -44 10 -44 -6 0 -8 -4 -15 -10 -15 -5 0 -10 16 -10 35 0 19 5 35
10 35 6 0 10 -4 10 -8z m-1976 -66 c-3 -21 -8 -35 -11 -32 -2 2 -1 20 3 40 3
21 8 35 11 32 2 -2 1 -20 -3 -40z m-1889 14 c3 -5 -1 -10 -10 -10 -9 0 -13 5
-10 10 3 6 8 10 10 10 2 0 7 -4 10 -10z m6055 -10 c0 -5 -4 -10 -10 -10 -5 0
-10 5 -10 10 0 6 5 10 10 10 6 0 10 -4 10 -10z m-4189 -121 c-5 -30 -9 -42
-10 -28 -1 30 10 92 15 86 3 -2 0 -28 -5 -58z m4180 -13 c5 -6 9 -19 9 -30 0
-10 3 -17 6 -14 4 5 9 29 14 78 2 15 39 -134 40 -157 0 -13 -79 -8 -93 6 -10
10 -11 144 0 173 7 21 8 19 11 -12 2 -19 8 -39 13 -44z m-2224 7 c-3 -10 -5
-4 -5 12 0 17 2 24 5 18 2 -7 2 -21 0 -30z m-1976 -133 c-6 -44 -9 -53 -10
-29 -1 37 9 102 15 96 2 -1 -1 -32 -5 -67z m846 14 c-3 -3 -12 -4 -19 -1 -8 3
-5 6 6 6 11 1 17 -2 13 -5z m-587 -18 c0 -3 -4 -8 -10 -11 -5 -3 -10 -1 -10 4
0 6 5 11 10 11 6 0 10 -2 10 -4z m1101 -54 c-16 -5 -41 5 -41 17 0 7 10 6 26
-1 15 -7 21 -14 15 -16z m419 -112 c0 -5 -5 -10 -11 -10 -5 0 -7 5 -4 10 3 6
8 10 11 10 2 0 4 -4 4 -10z m51 -46 l44 -26 -40 7 c-55 9 -124 6 -149 -7 -19
-9 -20 -9 -6 6 9 9 36 22 60 30 25 8 46 14 46 15 1 1 22 -11 45 -25z m-4 -65
c52 -29 84 -55 76 -62 -3 -4 -14 -2 -24 3 -10 6 -28 9 -41 7 -14 -1 -22 3 -20
11 1 7 -8 12 -25 11 -17 -1 -21 -3 -10 -6 9 -2 17 -9 17 -14 0 -11 3 -12 -45
6 -22 8 -33 14 -25 15 9 0 6 6 -9 14 l-24 13 29 11 c43 16 60 14 101 -9z
m-277 -45 c0 -11 -5 -14 -16 -10 -9 3 -18 6 -20 6 -3 0 -2 5 1 10 10 16 35 12
35 -6z m126 -25 c19 -18 21 -25 12 -51 -9 -26 -12 -28 -20 -14 -7 13 -13 15
-23 6 -11 -9 -15 -6 -21 14 -7 28 -19 34 -28 14 -3 -7 -4 -4 -3 7 2 18 29 42
51 44 6 1 20 -8 32 -20z m-156 -9 c0 -5 7 -10 15 -10 22 0 18 -23 -5 -38 -24
-15 -27 -34 -4 -25 14 5 15 0 9 -38 -4 -24 -14 -49 -23 -55 -8 -6 -12 -15 -9
-21 4 -6 0 -19 -8 -29 -13 -18 -14 -18 -20 -1 -4 9 -5 29 -1 42 3 14 9 36 12
50 5 21 3 24 -10 19 -9 -3 -16 -14 -16 -23 0 -14 -2 -14 -10 -1 -9 13 -11 13
-21 0 -8 -12 -9 -10 -4 10 4 14 7 33 8 43 1 9 7 17 14 17 7 0 13 4 13 9 0 13
40 61 51 61 5 0 9 -4 9 -10z m337 -32 c33 -32 41 -48 23 -48 -13 0 -80 60 -80
71 0 18 25 8 57 -23z m-1860 -85 c-3 -10 -5 -4 -5 12 0 17 2 24 5 18 2 -7 2
-21 0 -30z m1804 21 c12 -14 11 -16 -5 -13 -11 2 -21 10 -24 17 -5 17 13 15
29 -4z m598 -145 c28 -29 51 -58 51 -65 0 -13 13 -19 34 -15 29 6 56 -11 56
-34 0 -21 5 -25 30 -25 21 0 30 -5 30 -16 0 -28 -23 -98 -37 -115 -7 -8 -13
-20 -13 -25 0 -5 -10 -21 -23 -36 -12 -15 -37 -45 -55 -68 -30 -36 -140 -120
-158 -120 -4 0 1 9 10 19 10 11 15 24 12 30 -3 5 1 16 10 25 8 9 13 20 10 24
-3 5 19 35 49 68 30 32 55 63 55 67 0 5 9 20 20 34 11 14 20 30 20 35 0 5 -17
-12 -38 -39 -21 -26 -67 -74 -101 -105 -85 -79 -129 -101 -75 -38 11 14 10 16
-8 17 -36 3 -41 27 -8 36 32 8 36 17 19 49 -14 27 3 47 25 28 9 -7 23 -10 31
-6 25 9 17 23 -15 23 -39 0 -46 8 -32 38 6 14 8 25 3 25 -5 0 -11 -6 -14 -12
-2 -7 -7 -11 -10 -8 -7 7 29 192 45 233 6 15 14 27 18 27 4 0 30 -23 59 -51z
m-3808 -150 c35 -105 59 -249 41 -249 -14 0 -35 63 -37 109 -1 27 -15 73 -32
111 -36 77 -46 127 -37 177 l7 37 15 -50 c8 -27 27 -88 43 -135z m5226 103
c-2 -54 -10 -84 -38 -143 -25 -52 -35 -84 -32 -109 2 -21 -5 -51 -16 -75 l-19
-40 -1 55 c0 30 8 84 18 120 11 36 32 109 48 163 15 53 31 97 35 97 4 0 6 -31
5 -68z m-1690 11 c8 -36 11 -38 53 -43 l45 -5 -33 -18 c-31 -17 -33 -21 -28
-53 8 -38 -5 -45 -35 -18 -16 14 -20 14 -46 -2 -15 -10 -31 -23 -35 -28 -15
-23 -17 3 -2 33 20 40 13 60 -26 67 -45 10 -36 24 15 24 43 0 45 1 56 40 7 22
16 40 20 40 4 0 11 -17 16 -37z m-1910 -18 c6 -41 4 -39 63 -44 l25 -2 -27
-20 c-28 -21 -37 -52 -18 -64 6 -3 10 -10 10 -16 0 -13 -28 -11 -32 3 -6 18
-69 14 -80 -5 -5 -9 -13 -17 -18 -17 -14 0 -12 26 2 49 15 25 -4 51 -38 51
-13 0 -24 5 -24 10 0 6 20 10 43 10 42 0 44 1 57 40 15 46 32 48 37 5z m1402
-213 c1 -103 4 -202 7 -219 5 -24 3 -33 -7 -33 -24 0 -42 17 -36 34 4 9 7 115
7 235 1 120 4 222 8 226 13 13 20 -59 21 -243z m646 -22 c-3 -6 1 -13 9 -16 9
-3 13 -11 9 -17 -4 -6 -11 -3 -20 8 -16 23 -17 35 -2 35 5 0 7 -5 4 -10z
m-932 -10 c17 0 13 -6 -19 -25 -41 -24 -65 -65 -39 -65 7 0 15 -5 17 -10 8
-26 108 26 108 57 0 16 95 19 105 3 3 -5 1 -10 -5 -10 -8 0 -8 -6 0 -20 7 -13
7 -20 1 -20 -6 0 -8 -7 -5 -15 5 -12 2 -14 -12 -8 -17 6 -18 5 -4 -13 14 -19
14 -19 -7 -1 -25 21 -43 15 -43 -14 0 -11 -5 -17 -10 -14 -16 10 -38 -19 -42
-56 -4 -34 -4 -34 -15 -9 l-12 25 0 -23 c-1 -29 -21 -19 -22 11 0 21 -1 21 -9
2 -5 -11 -9 -15 -10 -10 0 6 -8 1 -16 -10 -16 -20 -16 -20 -9 3 3 12 2 22 -3
22 -10 0 -24 -39 -17 -50 2 -3 22 -6 44 -5 37 1 42 -2 51 -31 13 -39 3 -136
-14 -131 -6 2 -14 26 -17 53 -3 27 -7 41 -7 31 -1 -10 -9 -34 -17 -55 -11 -25
-18 -33 -24 -24 -4 7 -19 12 -32 11 -13 -1 -34 -1 -46 -1 l-23 2 20 33 c11 17
25 43 30 56 13 29 9 96 -5 97 -30 3 -75 28 -76 42 -4 52 25 127 51 136 8 3 31
15 50 26 19 11 41 18 48 15 8 -3 23 -5 35 -5z m67 -25 c-7 -9 -15 -13 -17 -11
-7 7 7 26 19 26 6 0 6 -6 -2 -15z m645 -73 c70 -10 72 -12 27 -32 -38 -17 -42
-22 -36 -45 7 -29 -10 -34 -37 -9 -16 14 -20 14 -48 0 -44 -23 -55 -20 -32 10
28 36 26 51 -10 73 -37 22 -24 35 26 25 28 -5 36 -3 42 12 4 10 14 26 22 37
15 17 16 15 21 -25 4 -33 10 -43 25 -46z m-1730 26 c8 -26 16 -33 37 -35 15
-1 30 2 33 8 4 5 14 9 23 9 12 0 7 -9 -17 -29 -26 -21 -32 -32 -27 -49 4 -12
12 -22 17 -22 5 0 9 -7 9 -15 0 -8 -7 -15 -15 -15 -8 0 -15 5 -15 10 0 21 -58
10 -78 -15 -27 -34 -31 -32 -25 16 7 46 -4 59 -50 59 -16 0 -26 4 -22 10 3 6
17 10 30 10 42 0 55 11 61 51 8 47 26 51 39 7z m508 -96 c-6 -23 33 -141 54
-164 15 -17 14 -18 -4 -18 -22 0 -53 38 -53 64 0 9 -7 35 -15 60 -8 24 -12 51
-9 60 9 22 33 20 27 -2z m-633 -112 c24 -15 7 -18 -25 -4 -23 10 -25 13 -10
13 11 1 27 -3 35 -9z m-2 -36 c20 -8 33 -17 30 -20 -9 -8 -81 14 -103 31 -19
16 -19 16 9 10 17 -3 45 -13 64 -21z m1982 21 c0 -2 -13 -11 -30 -20 -16 -9
-30 -11 -30 -6 0 7 22 19 58 30 1 1 2 -1 2 -4z m-2748 -217 c32 -38 35 -55 11
-60 -16 -4 -75 46 -112 94 -22 29 -41 128 -29 154 10 21 14 16 56 -66 25 -49
58 -104 74 -122z m2438 168 l0 -44 48 -7 47 -7 -42 -19 c-40 -17 -43 -21 -43
-55 l0 -38 -29 28 c-28 27 -29 27 -61 11 -41 -21 -48 -14 -21 24 l21 29 -29
30 c-17 16 -27 32 -24 36 11 11 61 6 66 -6 5 -16 47 28 47 49 0 7 5 13 10 13
6 0 10 -20 10 -44z m-890 -17 c0 -31 -4 -48 -10 -44 -5 3 -10 26 -10 51 0 24
5 44 10 44 6 0 10 -23 10 -51z m2015 0 c-3 -13 -7 -37 -11 -54 -10 -52 -65
-126 -109 -146 -22 -10 -42 -16 -44 -13 -6 6 20 55 41 75 9 10 35 55 58 102
36 71 45 84 56 72 7 -7 11 -23 9 -36z m-2502 21 c9 -11 17 -25 17 -30 0 -16
42 -12 61 6 10 9 22 13 28 10 6 -4 -6 -22 -27 -41 l-37 -34 30 -32 30 -32 -30
6 c-16 3 -37 8 -46 12 -11 4 -28 -5 -48 -26 l-32 -31 6 44 c6 43 5 45 -25 54
-42 12 -43 28 -2 32 30 3 32 6 32 43 0 44 15 51 43 19z m-345 -5 l51 -16 -46
-59 c-44 -57 -48 -60 -82 -55 -35 5 -36 5 -9 -8 l27 -12 -30 -17 c-16 -10 -29
-13 -29 -8 0 6 -9 10 -20 10 -18 0 -30 -20 -12 -20 4 0 14 -5 22 -10 13 -9 11
-13 -10 -31 -14 -11 -20 -22 -15 -25 58 -25 36 -45 -36 -32 -27 5 -68 17 -92
28 l-42 18 31 7 c23 5 33 14 40 38 8 27 13 32 37 29 34 -4 43 15 23 53 -16 30
-12 51 4 25 7 -11 14 -8 38 16 16 17 31 36 33 41 2 5 18 17 34 25 17 9 30 16
31 17 0 1 24 -6 52 -14z m2128 -50 c43 -47 58 -54 68 -32 3 6 2 -1 -1 -18 -3
-16 -10 -31 -14 -33 -19 -8 6 -32 32 -32 25 0 30 -5 36 -30 4 -23 11 -30 29
-30 42 0 25 -25 -28 -43 -65 -21 -129 -26 -135 -11 -2 6 5 14 17 17 26 7 26
23 0 37 -11 6 -20 15 -20 19 0 5 9 11 20 14 11 3 20 10 20 16 0 15 -37 14 -42
-1 -3 -9 -9 -8 -22 2 -46 38 -95 93 -108 120 -7 16 -17 30 -23 30 -5 1 1 7 15
16 17 10 40 13 70 9 37 -4 52 -13 86 -50z m-821 15 c3 -5 1 -10 -4 -10 -6 0
-11 5 -11 10 0 6 2 10 4 10 3 0 8 -4 11 -10z m-1130 -122 c14 -12 25 -25 25
-30 0 -18 -102 -55 -218 -77 -33 -7 -40 -6 -32 4 5 6 6 15 2 20 -4 4 3 4 16 0
19 -5 23 -3 20 12 -2 12 8 23 32 35 19 10 31 18 25 18 -5 1 5 7 23 15 18 8 39
12 46 9 8 -3 17 -1 21 5 9 15 11 14 40 -11z m1763 -16 c2 -6 19 -19 38 -28 19
-9 34 -22 34 -29 0 -8 14 -16 31 -20 17 -4 28 -9 26 -11 -3 -3 -35 2 -71 10
-74 18 -174 64 -141 66 11 1 14 4 7 7 -6 2 -10 9 -7 13 8 13 78 6 83 -8z
m-483 -67 l30 -24 27 26 c34 32 45 25 24 -16 -22 -42 -20 -48 14 -56 45 -10
39 -35 -9 -35 -36 0 -40 -3 -51 -35 -6 -19 -15 -35 -20 -35 -10 0 -20 25 -20
51 0 16 -7 19 -45 19 -34 0 -43 3 -39 14 3 8 17 17 31 21 26 6 27 12 8 73 -10
30 11 29 50 -3z m-935 7 c0 -5 11 -14 24 -22 21 -11 28 -10 53 7 36 25 60 20
32 -8 -27 -27 -25 -59 4 -59 12 0 28 -9 34 -19 12 -19 9 -20 -34 -23 -42 -3
-47 -6 -57 -35 -6 -18 -15 -33 -21 -33 -11 0 -12 4 -14 46 -1 26 -2 27 -52 21
l-51 -6 26 24 c15 14 32 25 38 25 6 0 7 7 3 18 -17 39 -18 72 -1 72 9 0 16 -4
16 -8z m-772 -72 c2 -6 19 -7 45 -3 40 6 41 6 24 -12 -14 -14 -27 -16 -60 -11
-23 4 -49 8 -57 10 -21 3 -40 15 -40 26 0 12 84 3 88 -10z m2579 5 c-5 -14
-65 -34 -105 -34 -18 -1 -40 6 -48 14 -14 13 -12 15 20 11 20 -3 46 0 59 7 28
15 78 16 74 2z m-2656 -27 c3 -5 35 -11 72 -15 74 -7 86 -17 30 -26 -57 -10
-146 15 -180 49 -10 10 -4 11 30 7 23 -4 45 -10 48 -15z m2733 7 c-8 -20 -106
-55 -154 -55 -67 0 -99 24 -37 28 59 4 107 14 107 22 0 5 19 11 43 13 23 2 43
4 44 5 1 1 0 -5 -3 -13z m-1213 -55 c12 -33 18 -35 67 -21 39 12 40 6 6 -30
l-26 -28 21 -30 c26 -36 14 -46 -29 -24 -33 16 -34 16 -56 -10 -32 -37 -44
-34 -34 8 9 39 -6 55 -51 55 -18 0 -19 2 -9 15 7 8 25 15 41 15 24 0 29 4 29
24 0 59 25 74 41 26z m-1949 -7 c22 -23 24 -31 15 -44 -20 -27 -56 -42 -72
-29 -33 28 -24 100 13 100 10 0 30 -12 44 -27z m378 -1 c43 -12 51 -16 35 -22
-11 -4 -29 -6 -40 -4 -72 13 -91 18 -102 30 -7 7 -13 15 -13 18 0 7 50 -2 120
-22z m1274 13 c-4 -8 -3 -26 0 -39 5 -19 15 -25 53 -31 l48 -8 -48 -15 -48
-16 6 -38 c8 -45 -1 -48 -30 -12 -21 26 -22 26 -53 10 -47 -24 -54 -20 -30 20
l22 37 -27 21 c-38 31 -34 39 17 32 42 -7 45 -6 57 24 14 30 44 44 33 15z
m1587 -5 c-13 -11 -32 -20 -42 -20 -10 0 -29 -5 -43 -11 -14 -7 -37 -8 -53 -4
l-28 7 40 14 c41 15 108 31 135 33 10 0 7 -6 -9 -19z m330 10 c23 -13 26 -62
3 -84 -17 -18 -54 -22 -54 -5 0 5 -4 8 -9 5 -5 -3 -12 6 -15 20 -6 21 -1 31
21 50 32 28 29 27 54 14z m-1961 -4 c0 -3 -4 -8 -10 -11 -5 -3 -10 -1 -10 4 0
6 5 11 10 11 6 0 10 -2 10 -4z m-2469 -126 c-25 -21 -46 -27 -36 -10 3 6 13
10 21 10 8 0 14 5 14 10 0 6 6 10 13 10 6 -1 1 -10 -12 -20z m5370 3 c13 -15
12 -15 -8 -4 -24 12 -29 21 -14 21 5 0 15 -7 22 -17z m-5437 -37 c-10 -8 -21
-12 -24 -10 -5 6 21 24 34 24 6 0 1 -6 -10 -14z m1598 -227 c-3 -21 -8 -25
-28 -21 -30 5 -30 17 -1 59 21 31 22 32 27 10 3 -12 4 -33 2 -48z m2302 -10
c-3 -5 -14 -9 -26 -9 -14 0 -18 5 -14 16 3 9 6 23 6 32 1 14 5 12 20 -7 11
-12 17 -27 14 -32z m-2636 -31 c-11 -40 -25 -95 -32 -123 -13 -50 -28 -59 -51
-32 -5 7 -23 19 -39 27 -16 8 -41 26 -55 40 -14 14 -38 31 -53 39 l-28 14 32
29 c17 15 40 28 50 28 10 0 18 4 18 8 0 14 87 37 152 41 l26 1 -20 -72z m3056
37 c15 -8 36 -15 46 -15 9 0 31 -13 47 -29 l31 -29 -27 -13 c-14 -8 -38 -25
-52 -39 -14 -14 -39 -32 -55 -40 -16 -8 -38 -23 -48 -33 -11 -9 -23 -14 -27
-10 -4 5 -15 44 -24 88 -9 44 -19 92 -22 108 -5 27 -5 27 48 27 30 0 67 -7 83
-15z m-2046 -31 c2 -28 2 -28 -13 -10 -18 24 -20 49 -2 44 6 -3 13 -18 15 -34z
m-662 -61 c51 -35 83 -77 70 -90 -8 -8 -72 20 -106 47 -46 36 -64 65 -56 86 7
17 6 18 92 -43z m902 34 c3 -12 -7 -22 -32 -32 -19 -8 -38 -15 -41 -15 -5 0 4
48 12 63 9 15 58 3 61 -16z m1422 -4 c0 -35 -151 -146 -166 -122 -13 21 12 52
79 98 73 49 87 53 87 24z m-3130 -13 c0 -5 -5 -10 -11 -10 -5 0 -7 5 -4 10 3
6 8 10 11 10 2 0 4 -4 4 -10z m-30 -23 c0 -2 -17 -19 -37 -38 l-38 -34 34 38
c33 34 41 42 41 34z m735 -7 c3 -5 1 -10 -4 -10 -6 0 -11 5 -11 10 0 6 2 10 4
10 3 0 8 -4 11 -10z m-508 -12 c6 -7 13 -24 16 -38 4 -14 29 -49 57 -77 27
-28 50 -57 50 -64 0 -9 -3 -10 -8 -4 -4 6 -32 29 -62 52 -90 68 -103 85 -89
117 14 29 22 32 36 14z m3482 -14 c10 -24 9 -30 -11 -52 -13 -13 -48 -43 -78
-65 -30 -22 -58 -45 -62 -51 -5 -7 -8 -6 -8 3 0 7 25 38 55 69 32 32 55 65 55
77 0 20 17 45 30 45 4 0 12 -12 19 -26z m-89 -33 c0 -15 -132 -161 -146 -161
-6 0 -14 -6 -17 -14 -5 -13 -61 -46 -79 -46 -4 0 -8 11 -8 24 0 25 14 38 105
106 26 19 57 44 69 55 12 11 33 25 47 32 31 15 29 15 29 4z m-3203 -84 c84
-65 109 -89 111 -110 4 -32 -3 -33 -49 -10 -33 16 -172 152 -190 186 -21 37
21 15 128 -66z m3648 33 c3 -5 1 -10 -4 -10 -6 0 -11 5 -11 10 0 6 2 10 4 10
3 0 8 -4 11 -10z m-4290 -100 c-3 -5 -12 -10 -18 -10 -7 0 -6 4 3 10 19 12 23
12 15 0z m4400 -8 c-3 -3 -11 0 -18 7 -9 10 -8 11 6 5 10 -3 15 -9 12 -12z
m-4456 -48 c-18 -20 -43 -40 -54 -46 -11 -6 0 9 25 34 25 25 49 46 54 47 6 0
-6 -15 -25 -35z m4516 -6 c27 -28 32 -35 14 -24 -28 17 -73 66 -61 66 4 -1 25
-19 47 -42z"/>
<path d="M3489 4410 c-24 -17 -66 -37 -92 -45 -27 -8 -70 -30 -96 -49 -26 -18
-59 -37 -72 -41 -13 -4 -82 -46 -154 -94 -71 -48 -147 -95 -168 -105 -21 -10
-36 -20 -34 -23 7 -6 132 56 155 77 32 30 167 115 211 133 24 10 53 24 65 32
30 22 49 19 41 -5 -6 -18 -3 -19 27 -14 68 11 83 16 99 30 18 16 46 14 92 -4
35 -15 47 -15 47 -1 0 5 5 7 10 4 6 -3 10 3 10 14 0 12 5 21 10 21 6 0 10 7
10 16 0 12 6 15 25 10 33 -8 32 -1 -2 17 -16 8 -46 24 -68 36 -52 28 -64 27
-116 -9z m1 -45 c0 -8 -8 -15 -17 -15 -10 -1 -35 -7 -55 -14 -52 -19 -48 -1 5
23 52 24 67 25 67 6z"/>
<path d="M3800 4310 c8 -8 14 -23 12 -33 -3 -14 2 -16 35 -12 31 4 54 -3 120
-36 45 -23 88 -47 94 -55 6 -8 17 -14 24 -14 7 0 23 -8 36 -19 13 -10 35 -21
49 -25 l25 -7 -25 20 c-14 11 -29 21 -34 21 -4 0 -47 25 -95 55 -47 30 -119
66 -160 80 -40 13 -79 28 -85 32 -7 5 -5 1 4 -7z"/>
<path d="M3860 4232 c0 -5 11 -14 25 -20 29 -14 34 2 6 18 -24 12 -31 13 -31
2z"/>
<path d="M3215 4187 c-37 -23 -80 -81 -71 -96 3 -4 37 3 77 16 39 13 89 25
110 25 22 0 39 4 39 8 0 4 10 11 23 14 18 5 13 10 -33 26 -62 22 -116 24 -145
7z"/>
<path d="M3600 4065 c0 -12 -6 -15 -20 -10 -16 5 -20 2 -20 -16 0 -18 2 -19
15 -9 12 10 15 9 16 -6 0 -11 3 -14 6 -6 2 6 11 12 19 12 18 0 18 18 -1 36
-13 14 -15 14 -15 -1z"/>
<path d="M3644 4065 c-10 -26 1 -35 13 -10 6 14 7 25 2 25 -5 0 -12 -7 -15
-15z"/>
<path d="M2996 4061 c-4 -5 3 -7 14 -4 23 6 26 13 6 13 -8 0 -17 -4 -20 -9z"/>
<path d="M3720 4056 c4 -4 16 -4 26 2 16 9 14 10 -8 9 -15 -1 -23 -6 -18 -11z"/>
<path d="M4343 4033 c9 -9 19 -14 23 -11 10 10 -6 28 -24 28 -15 0 -15 -1 1
-17z"/>
<path d="M3565 3981 c-3 -6 -2 -11 4 -11 6 0 8 -6 6 -12 -7 -19 7 -34 38 -42
30 -7 38 12 12 34 -8 6 -13 17 -12 23 3 15 -39 21 -48 8z"/>
<path d="M4240 3954 c0 -7 27 -34 34 -34 4 0 1 9 -6 20 -12 19 -28 27 -28 14z"/>
<path d="M3045 3940 c-3 -6 1 -7 9 -4 18 7 21 14 7 14 -6 0 -13 -4 -16 -10z"/>
<path d="M3080 3901 c-8 -5 -18 -7 -22 -5 -4 3 -8 -1 -8 -10 0 -8 -6 -16 -12
-19 -7 -2 -10 -8 -6 -12 4 -4 34 1 65 11 68 22 102 24 124 6 12 -9 23 -9 46
-2 17 6 43 12 58 13 16 1 30 8 33 15 5 17 -97 9 -108 -8 -5 -8 -9 -9 -11 -1
-5 14 -140 25 -159 12z"/>
<path d="M3790 3840 c0 -5 5 -10 11 -10 5 0 7 5 4 10 -3 6 -8 10 -11 10 -2 0
-4 -4 -4 -10z"/>
<path d="M3650 3808 c0 -14 6 -19 22 -16 31 4 33 25 3 30 -20 4 -25 1 -25 -14z"/>
<path d="M2880 3760 c-14 -11 -19 -20 -12 -20 8 0 25 9 39 20 15 11 20 20 12
20 -8 0 -25 -9 -39 -20z"/>
<path d="M3185 3750 c-10 -11 -13 -20 -8 -20 13 0 38 29 31 35 -3 3 -13 -4
-23 -15z"/>
<path d="M3675 3620 c-10 -11 -13 -20 -7 -20 6 0 16 9 22 20 6 11 9 20 7 20
-2 0 -12 -9 -22 -20z"/>
<path d="M3568 3593 c7 -3 16 -2 19 1 4 3 -2 6 -13 5 -11 0 -14 -3 -6 -6z"/>
<path d="M3751 3554 c0 -11 3 -14 6 -6 3 7 2 16 -1 19 -3 4 -6 -2 -5 -13z"/>
<path d="M3780 3544 c0 -8 5 -12 10 -9 6 3 10 10 10 16 0 5 -4 9 -10 9 -5 0
-10 -7 -10 -16z"/>
<path d="M3578 3533 c7 -3 16 -2 19 1 4 3 -2 6 -13 5 -11 0 -14 -3 -6 -6z"/>
<path d="M3451 3094 c0 -11 3 -14 6 -6 3 7 2 16 -1 19 -3 4 -6 -2 -5 -13z"/>
<path d="M3907 2626 c-4 -10 -1 -13 9 -9 15 6 19 23 5 23 -5 0 -11 -7 -14 -14z"/>
<path d="M3855 2590 c-16 -11 -25 -20 -20 -20 10 0 64 39 55 40 -3 0 -18 -9
-35 -20z"/>
<path d="M3750 2540 c-8 -5 -10 -10 -5 -10 6 0 17 5 25 10 8 5 11 10 5 10 -5
0 -17 -5 -25 -10z"/>
<path d="M3668 2513 c7 -3 16 -2 19 1 4 3 -2 6 -13 5 -11 0 -14 -3 -6 -6z"/>
<path d="M1462 5000 c0 -14 2 -19 5 -12 2 6 2 18 0 25 -3 6 -5 1 -5 -13z"/>
<path d="M2657 4783 c-21 -20 -1 -41 71 -74 80 -38 102 -39 102 -8 0 13 -21
28 -75 54 -79 37 -88 39 -98 28z"/>
<path d="M2485 4240 c-10 -16 2 -25 36 -28 31 -2 53 13 43 30 -7 12 -72 10
-79 -2z"/>
<path d="M2583 4239 c-22 -22 -2 -39 43 -39 36 0 44 3 44 19 0 28 -65 42 -87
20z"/>
<path d="M4880 3345 c-12 -14 -11 -18 0 -25 10 -6 18 -4 23 6 13 23 -7 39 -23
19z"/>
<path d="M4843 3302 c-1 -22 0 -24 9 -8 6 10 6 22 2 26 -5 5 -10 -3 -11 -18z"/>
<path d="M4757 3303 c-4 -3 -7 -11 -7 -17 0 -6 5 -5 12 2 6 6 9 14 7 17 -3 3
-9 2 -12 -2z"/>
<path d="M4926 3284 c-9 -24 -7 -28 9 -14 17 14 20 30 6 30 -5 0 -12 -7 -15
-16z"/>
<path d="M4800 3244 c0 -9 5 -14 12 -12 18 6 21 28 4 28 -9 0 -16 -7 -16 -16z"/>
<path d="M4685 2680 c-3 -5 -1 -10 4 -10 6 0 11 5 11 10 0 6 -2 10 -4 10 -3 0
-8 -4 -11 -10z"/>
<path d="M4605 2670 c-3 -5 3 -10 14 -10 11 0 23 5 26 10 3 6 -3 10 -14 10
-11 0 -23 -4 -26 -10z"/>
<path d="M2938 6173 c12 -2 30 -2 40 0 9 3 -1 5 -23 4 -22 0 -30 -2 -17 -4z"/>
<path d="M1910 6121 c0 -5 7 -15 17 -22 15 -13 15 -12 4 9 -12 23 -21 28 -21
13z"/>
<path d="M5155 6103 l-17 -28 23 22 c12 12 20 25 17 28 -3 3 -13 -7 -23 -22z"/>
<path d="M4837 6103 c-4 -3 -7 -11 -7 -17 0 -6 5 -5 12 2 6 6 9 14 7 17 -3 3
-9 2 -12 -2z"/>
<path d="M2189 6062 c6 -12 16 -24 22 -28 8 -4 8 -1 0 14 -6 12 -16 24 -22 28
-8 4 -8 1 0 -14z"/>
<path d="M2609 5902 c25 -36 30 -39 27 -17 -1 9 -13 23 -26 32 l-24 17 23 -32z"/>
<path d="M2688 5902 c25 -35 32 -39 32 -19 0 6 -13 21 -28 32 l-26 19 22 -32z"/>
<path d="M2060 5915 c0 -15 18 -40 24 -34 3 3 -1 14 -9 25 -8 10 -14 15 -15 9z"/>
<path d="M3054 5888 c3 -18 5 -36 5 -40 1 -5 8 -8 17 -8 12 0 14 5 9 18 -4 9
-10 27 -12 40 -8 34 -23 26 -19 -10z"/>
<path d="M5006 5890 l-18 -35 22 21 c12 12 20 28 18 35 -3 9 -12 0 -22 -21z"/>
<path d="M4693 5871 c-11 -22 -16 -38 -12 -35 12 7 41 65 36 70 -2 3 -13 -13
-24 -35z"/>
<path d="M3020 5881 c0 -5 5 -13 10 -16 6 -3 10 -2 10 4 0 5 -4 13 -10 16 -5
3 -10 2 -10 -4z"/>
<path d="M2317 5860 c3 -11 9 -20 14 -20 11 0 11 3 3 24 -9 23 -23 20 -17 -4z"/>
<path d="M2700 5690 c6 -11 16 -20 22 -20 6 0 3 9 -7 20 -10 11 -20 20 -22 20
-2 0 1 -9 7 -20z"/>
<path d="M2795 5440 c4 -14 8 -25 9 -25 0 0 18 -9 40 -18 42 -19 63 -16 24 3
-12 7 -36 24 -52 39 l-28 26 7 -25z"/>
<path d="M3308 5443 c7 -3 16 -2 19 1 4 3 -2 6 -13 5 -11 0 -14 -3 -6 -6z"/>
<path d="M4325 5418 c-16 -15 -35 -28 -42 -28 -7 0 -13 -4 -13 -9 0 -18 61 11
77 35 22 34 13 35 -22 2z"/>
<path d="M2639 5402 c-59 -35 -116 -87 -169 -153 -110 -139 44 -117 186 27
118 120 107 200 -17 126z m8 -78 c32 -31 -18 -74 -53 -46 -27 23 -38 53 -22
64 17 11 56 1 75 -18z m-127 -105 c0 -5 -6 -9 -14 -9 -15 0 -28 24 -19 34 7 7
33 -13 33 -25z"/>
<path d="M4427 5413 c-14 -13 -6 -50 18 -86 14 -20 29 -37 33 -37 4 0 22 14
39 30 27 26 36 29 53 20 11 -6 20 -19 20 -29 0 -35 -59 -67 -75 -41 -3 6 -12
10 -18 10 -7 -1 11 -22 38 -47 54 -50 147 -98 170 -89 42 16 -12 108 -110 191
-86 73 -146 101 -168 78z m241 -190 c-2 -10 -11 -19 -21 -21 -16 -3 -17 -1 -5
17 16 25 31 27 26 4z"/>
<path d="M531 5363 c0 -12 -4 -30 -7 -40 -5 -17 -5 -17 6 0 6 10 9 28 7 40 -4
22 -4 22 -6 0z"/>
<path d="M6627 5366 c-4 -10 -5 -21 -2 -24 9 -9 17 6 13 25 -3 17 -4 17 -11
-1z"/>
<path d="M2890 5345 c0 -23 -28 -83 -57 -121 -24 -32 -30 -49 -13 -39 14 9 80
110 80 124 0 21 20 11 30 -14 5 -14 16 -25 25 -25 19 0 19 -7 0 -27 -18 -18
-15 -26 8 -17 30 11 24 30 -24 82 -31 34 -49 47 -49 37z"/>
<path d="M2685 5235 c-80 -80 -186 -145 -234 -145 -20 0 -20 -1 -4 -35 9 -19
26 -38 37 -41 22 -7 104 -94 121 -128 12 -24 55 -35 55 -13 0 7 -9 13 -21 13
-12 -1 -24 5 -27 13 -3 9 1 11 17 6 12 -4 21 -2 21 4 0 6 6 8 14 5 11 -4 50
35 98 101 5 5 24 30 43 53 19 24 32 48 29 53 -3 5 6 13 20 19 16 6 26 17 26
29 0 14 -5 19 -15 15 -12 -5 -13 -10 -4 -20 9 -11 6 -14 -20 -14 -26 0 -31 -4
-31 -24 0 -31 -12 -38 -45 -30 l-26 6 22 24 c31 33 10 30 -39 -6 -43 -31 -59
-29 -22 3 24 20 26 37 5 37 -8 0 -15 5 -15 10 0 6 -8 10 -17 10 -12 0 -4 12
25 37 23 20 42 41 42 46 0 6 7 19 17 29 9 10 14 19 12 21 -2 1 -40 -34 -84
-78z m-93 -139 c10 -7 14 -17 10 -21 -4 -5 1 -5 11 -2 9 4 17 2 17 -3 0 -16
-80 -51 -108 -48 l-27 4 30 13 c27 12 28 14 10 20 -26 8 -31 38 -8 44 32 8 48
7 65 -7z m50 -148 c-5 -12 -15 -9 -42 12 -18 15 -20 18 -6 14 14 -5 17 -3 14
7 -3 8 -15 13 -27 12 -31 -4 -26 16 7 23 15 3 32 7 37 8 10 3 24 -62 17 -76z"/>
<path d="M2900 5208 c0 -17 3 -28 8 -24 10 10 10 56 0 56 -4 0 -8 -14 -8 -32z"/>
<path d="M11010 5065 c0 -3 0 -149 0 -325 0 -176 0 -325 0 -330 0 -7 65 -10
188 -8 l187 3 3 42 3 42 -133 3 -133 3 0 100 0 100 118 3 118 3 -3 42 -3 42
-118 3 -118 3 3 92 3 92 125 5 125 5 3 43 3 42 -185 0 c-102 0 -186 -2 -186
-5z"/>
<path d="M11609 5045 c-58 -29 -106 -84 -115 -131 -16 -88 42 -164 164 -214
75 -30 132 -77 132 -108 0 -29 -33 -74 -65 -88 -46 -19 -91 -18 -159 5 l-57
19 -10 -26 c-20 -52 -10 -66 66 -85 152 -39 294 19 325 133 9 34 9 53 0 85
-21 70 -46 94 -156 146 -134 64 -162 105 -113 158 40 43 110 53 176 26 41 -17
45 -14 61 33 11 31 10 33 -28 52 -56 28 -159 26 -221 -5z"/>
<path d="M11952 5028 l3 -43 88 -3 c48 -1 88 -4 89 -5 1 -1 5 -130 8 -287 l5
-285 50 0 50 0 5 285 5 285 90 5 90 5 0 40 0 40 -243 3 -243 2 3 -42z"/>
<path d="M12595 5058 c-2 -7 -22 -76 -45 -153 -23 -77 -45 -151 -50 -165 -49
-140 -100 -324 -92 -332 14 -14 94 -5 103 12 4 8 15 42 24 75 25 94 20 90 130
93 60 2 102 -1 109 -8 6 -6 22 -47 36 -93 l26 -82 48 -3 c27 -2 52 0 57 5 4 4
-12 73 -38 153 -25 80 -70 227 -102 327 l-56 183 -73 0 c-49 0 -74 -4 -77 -12z
m97 -145 c3 -21 17 -77 32 -126 14 -48 26 -94 26 -101 0 -10 -17 -15 -64 -18
-35 -1 -71 -2 -80 0 -20 4 -21 38 -2 89 27 75 36 110 36 134 0 28 27 72 40 64
4 -3 10 -22 12 -42z"/>
<path d="M13090 5057 l-25 -13 0 -314 0 -315 79 -8 c61 -7 101 -5 175 8 99 18
147 39 194 83 81 77 118 237 82 356 -32 104 -77 149 -191 190 -60 22 -88 26
-180 26 -68 0 -118 -5 -134 -13z m289 -96 c98 -51 138 -174 100 -313 -13 -50
-72 -116 -124 -139 -53 -24 -170 -26 -179 -3 -3 9 -6 116 -6 239 0 203 2 225
18 235 26 16 144 5 191 -19z"/>
<path d="M13865 5043 c-68 -34 -129 -96 -157 -157 -19 -43 -23 -68 -23 -156 0
-88 4 -113 23 -156 61 -135 212 -199 365 -155 149 43 240 241 193 419 -28 106
-81 166 -189 215 -58 26 -150 22 -212 -10z m185 -83 c153 -78 144 -400 -13
-459 -89 -34 -179 13 -223 117 -23 55 -21 186 4 242 46 105 142 146 232 100z"/>
<path d="M14612 5060 l-22 -9 2 -323 3 -323 50 0 50 0 5 115 5 115 71 6 c138
13 202 53 229 142 37 125 0 213 -113 263 -45 20 -68 24 -155 23 -56 0 -112 -4
-125 -9z m223 -84 c68 -29 96 -126 55 -193 -27 -45 -70 -65 -133 -61 l-52 3
-3 120 c-2 104 0 121 15 132 23 17 76 16 118 -1z"/>
<path d="M15142 4738 l3 -333 179 -3 c114 -1 183 1 191 8 7 6 12 25 11 43 l-2
32 -129 5 -130 5 -3 288 -2 287 -60 0 -60 0 2 -332z"/>
<path d="M15582 4828 c3 -239 3 -244 30 -300 32 -68 79 -103 162 -120 129 -27
255 42 290 161 12 40 16 106 16 274 l2 222 -56 3 -56 3 0 -228 c0 -203 -3
-233 -20 -270 -49 -109 -191 -109 -240 0 -17 37 -20 67 -20 270 l0 227 -56 0
-55 0 3 -242z"/>
<path d="M16238 5057 l-28 -11 0 -323 0 -324 53 3 52 3 5 125 5 125 48 3 c83
5 115 -30 148 -167 10 -41 24 -78 31 -83 7 -4 33 -7 58 -6 51 3 50 -2 20 107
-24 89 -55 157 -75 165 -24 9 -17 35 16 64 36 30 68 94 69 136 1 130 -96 197
-280 195 -52 -1 -107 -6 -122 -12z m215 -81 c45 -19 68 -48 74 -94 11 -83 -56
-145 -149 -140 l-53 3 -3 110 c-2 95 0 111 15 122 22 17 75 16 116 -1z"/>
<path d="M16762 4738 l3 -333 49 -3 c32 -2 52 1 57 10 5 7 9 158 9 336 l0 322
-60 0 -60 0 2 -332z"/>
<path d="M17022 4738 l3 -333 45 0 45 0 0 257 c0 200 2 255 12 245 6 -6 39
-64 72 -128 55 -108 125 -234 186 -337 25 -43 25 -43 78 -40 l52 3 3 333 2
333 -51 -3 -51 -3 1 -175 c1 -96 4 -208 8 -247 4 -51 2 -73 -5 -73 -6 0 -30
39 -53 88 -22 48 -82 160 -132 249 l-92 163 -63 0 -62 0 2 -332z"/>
<path d="M17825 5058 c-13 -40 -109 -348 -115 -373 -4 -16 -24 -79 -43 -140
-19 -60 -37 -117 -39 -125 -2 -11 8 -16 42 -18 25 -1 51 2 58 6 7 5 22 42 33
83 12 41 26 80 32 87 7 9 38 12 111 10 l100 -3 31 -90 30 -90 45 -3 c68 -4 74
5 51 69 -11 30 -41 122 -66 204 -26 83 -64 204 -85 270 l-38 120 -71 3 c-52 2
-73 -1 -76 -10z m93 -134 c2 -10 17 -70 34 -131 18 -62 30 -114 27 -117 -7 -7
-30 -8 -96 -7 -75 1 -75 0 -38 127 14 47 25 96 25 108 0 43 42 60 48 20z"/>
<path d="M18495 5061 c-6 -5 -28 -14 -50 -21 -84 -27 -147 -87 -187 -177 -16
-38 -20 -68 -20 -140 0 -84 3 -96 34 -154 74 -140 247 -202 416 -148 35 12 43
40 19 74 -12 16 -18 16 -47 7 -116 -41 -258 26 -296 140 -34 102 -3 224 72
286 61 50 139 62 245 36 24 -5 28 -2 39 31 14 42 16 38 -34 59 -41 17 -175 22
-191 7z"/>
<path d="M18822 4738 l3 -333 44 -3 c24 -2 48 1 53 6 5 5 9 152 9 333 l0 324
-56 3 -55 3 2 -333z"/>
<path d="M19225 5039 c-76 -38 -109 -70 -141 -135 -54 -111 -50 -259 10 -361
119 -200 411 -182 518 32 9 17 21 61 28 98 15 80 2 163 -35 238 -28 55 -104
125 -146 134 -16 4 -31 11 -34 16 -4 5 -36 9 -73 9 -55 0 -78 -6 -127 -31z
m172 -70 c163 -61 179 -370 24 -457 -98 -55 -216 7 -251 133 -18 63 -9 170 20
229 40 83 130 125 207 95z"/>
<path d="M19772 4738 l3 -333 45 0 45 0 0 253 c0 270 4 291 44 207 12 -25 21
-47 21 -50 0 -2 50 -95 111 -205 118 -212 120 -215 190 -208 l34 3 3 333 2
332 -51 0 -52 0 6 -227 c3 -126 7 -237 9 -247 2 -10 -2 -21 -8 -23 -10 -3 -23
19 -85 152 -18 39 -56 108 -85 155 -28 47 -63 109 -78 138 l-26 52 -65 0 -65
0 2 -332z"/>
<path d="M20547 4958 c-19 -62 -47 -153 -62 -203 -15 -49 -45 -144 -66 -210
-21 -67 -39 -127 -39 -133 0 -19 101 -11 111 8 4 8 15 44 25 80 10 36 22 71
27 78 6 8 41 12 108 12 67 0 100 -4 106 -12 4 -7 19 -49 34 -93 l25 -80 45 -3
c67 -4 72 4 50 74 -55 169 -99 310 -168 537 l-17 57 -72 0 -71 0 -36 -112z
m123 -40 c0 -10 11 -52 25 -94 14 -43 28 -95 31 -116 l7 -38 -64 -1 c-68 -1
-91 0 -98 7 -3 3 1 24 8 47 16 55 28 101 40 161 13 58 30 84 42 64 5 -7 9 -21
9 -30z"/>
<path d="M21022 4738 l3 -333 185 0 185 0 3 43 3 42 -123 0 c-83 0 -128 4
-136 12 -9 9 -12 87 -12 290 l0 278 -55 0 -55 0 2 -332z"/>
<path d="M21738 5054 l-28 -15 0 -302 c0 -166 4 -307 8 -313 4 -7 43 -15 87
-18 138 -12 297 29 359 91 99 99 126 290 59 418 -55 105 -169 155 -350 155
-76 -1 -116 -5 -135 -16z m304 -99 c131 -87 142 -293 22 -406 -48 -45 -89 -59
-169 -59 -50 0 -64 4 -69 17 -9 22 -6 447 2 460 13 19 37 23 107 18 51 -4 80
-12 107 -30z"/>
<path d="M22362 4738 l3 -333 170 -3 c213 -3 217 -3 213 46 l-3 37 -124 3
c-71 1 -130 7 -138 14 -14 12 -19 164 -5 185 5 8 46 13 122 15 l115 3 0 40 0
40 -120 5 -120 5 -3 78 c-2 50 1 84 9 93 9 11 40 14 130 14 l119 0 0 45 0 45
-185 0 -185 0 2 -332z"/>
<path d="M23083 5060 c-13 -5 -23 -13 -23 -17 -5 -159 1 -618 8 -625 15 -15
198 -15 264 0 107 25 162 85 161 174 -1 59 -36 119 -82 138 -35 14 -41 36 -11
45 24 8 56 60 65 106 5 27 1 49 -13 81 -16 37 -29 49 -81 76 -59 30 -69 32
-164 31 -56 0 -112 -4 -124 -9z m246 -104 c38 -39 36 -96 -7 -138 -28 -29 -38
-33 -89 -33 l-58 0 -3 94 c-2 69 1 97 10 103 7 5 37 7 67 4 41 -4 61 -11 80
-30z m-10 -270 c103 -54 67 -184 -56 -201 -91 -12 -93 -10 -93 111 l0 104 60
0 c34 0 74 -7 89 -14z"/>
<path d="M23800 5060 c-8 -5 -32 -16 -52 -25 -53 -24 -107 -80 -137 -144 -22
-49 -26 -69 -26 -161 0 -95 3 -110 28 -162 87 -177 313 -221 458 -90 55 50 76
83 95 157 26 97 11 212 -39 298 -32 54 -50 70 -122 107 -49 24 -72 30 -125 29
-36 0 -72 -4 -80 -9z m155 -103 c23 -13 52 -43 70 -71 26 -43 30 -61 34 -133
6 -160 -66 -263 -184 -263 -64 0 -129 50 -159 122 -23 55 -21 194 3 250 46
105 147 146 236 95z"/>
<path d="M24300 4747 c0 -238 3 -326 12 -335 17 -17 352 -17 365 1 6 6 9 26 9
42 l-1 30 -130 5 -130 5 -3 288 -2 287 -60 0 -60 0 0 -323z"/>
<path d="M24772 4738 l3 -333 50 0 50 0 3 333 2 332 -55 0 -55 0 2 -332z"/>
<path d="M24963 5057 c3 -8 24 -74 47 -148 22 -74 45 -145 49 -159 14 -41 104
-324 107 -337 2 -9 24 -13 63 -13 37 0 63 5 68 13 6 9 193 553 220 640 5 15
-2 17 -53 17 l-59 0 -42 -132 c-22 -73 -57 -191 -77 -262 -20 -72 -40 -134
-46 -140 -11 -11 -14 -4 -34 79 -19 81 -57 217 -96 348 l-33 107 -59 0 c-46 0
-59 -3 -55 -13z"/>
<path d="M25602 4738 l3 -333 50 0 50 0 3 333 2 332 -55 0 -55 0 2 -332z"/>
<path d="M26015 5058 c-14 -44 -76 -245 -95 -308 -52 -173 -92 -296 -101 -313
-5 -10 -7 -22 -4 -27 7 -12 85 -13 103 -2 6 5 19 35 27 67 30 114 25 110 145
110 l104 0 26 -80 c14 -44 29 -86 33 -92 12 -19 96 -17 103 2 5 13 -30 136
-91 320 -13 39 -40 124 -60 190 -20 66 -38 126 -40 133 -3 8 -27 12 -75 12
-48 0 -72 -4 -75 -12z m90 -135 c3 -16 17 -68 31 -118 42 -148 46 -133 -33
-137 -77 -4 -108 5 -98 30 7 17 48 173 59 225 4 15 13 27 21 27 8 0 17 -12 20
-27z"/>
<path d="M8452 4490 c-42 -47 -212 -283 -207 -288 8 -9 243 -4 259 5 28 16
314 288 312 297 -1 5 -78 9 -171 10 -169 1 -170 1 -193 -24z"/>
<path d="M396 4244 c-4 -14 -5 -28 -3 -31 3 -2 8 8 11 23 4 14 5 28 3 31 -3 2
-8 -8 -11 -23z"/>
<path d="M6704 4225 c7 -37 20 -54 39 -55 18 0 -2 50 -31 80 -13 13 -14 10 -8
-25z"/>
<path d="M6756 4240 c3 -14 11 -32 16 -40 6 -10 7 -7 2 10 -3 14 -11 32 -16
40 -6 10 -7 7 -2 -10z"/>
<path d="M8250 4105 c-314 -55 -551 -262 -656 -573 -58 -171 -81 -419 -50
-550 46 -191 54 -218 94 -299 99 -205 246 -334 471 -415 l106 -38 173 0 c95 0
180 4 190 9 9 6 48 19 86 31 242 74 425 244 513 475 69 182 88 298 80 494 -8
193 -60 375 -146 512 -173 274 -515 414 -861 354z m312 -280 c88 -35 154 -89
215 -173 107 -150 156 -358 134 -569 -20 -181 -58 -292 -141 -403 -63 -85
-119 -125 -239 -171 -50 -19 -214 -16 -274 4 -82 29 -125 55 -184 115 -129
127 -193 310 -193 542 1 242 75 445 209 567 89 81 171 111 308 112 87 1 112
-3 165 -24z"/>
<path d="M9790 4105 c-85 -8 -167 -18 -183 -24 l-27 -11 2 -907 3 -908 160 0
160 0 5 380 5 380 94 3 c161 5 258 -28 316 -108 48 -65 60 -101 120 -340 29
-118 61 -237 72 -265 l19 -50 168 -3 c157 -2 168 -1 163 15 -32 106 -63 221
-106 388 -29 110 -64 227 -80 260 -33 69 -97 146 -153 181 -21 13 -38 28 -38
34 0 5 28 24 62 42 159 84 259 253 258 436 -1 129 -40 236 -117 322 -145 161
-423 215 -903 175z m521 -261 c56 -26 115 -77 136 -118 9 -17 22 -59 28 -93
32 -163 -59 -311 -219 -357 -38 -11 -97 -16 -200 -16 l-146 0 0 293 c0 221 3
296 13 306 9 9 53 12 177 9 142 -3 171 -6 211 -24z"/>
<path d="M11870 4105 c-266 -39 -497 -158 -632 -326 -28 -35 -60 -80 -72 -99
-30 -47 -87 -177 -97 -220 -53 -211 -53 -405 -1 -620 26 -105 107 -252 187
-339 78 -85 229 -179 345 -214 176 -53 164 -52 405 -51 214 0 238 2 340 27
191 46 228 57 237 71 4 6 8 217 8 469 l0 457 -317 -2 -318 -3 0 -124 0 -124
148 2 c103 2 153 -1 163 -10 19 -16 21 -437 2 -461 -21 -26 -104 -39 -242 -39
-87 0 -151 5 -191 15 -92 24 -199 81 -264 142 -242 223 -269 687 -58 963 120
156 339 240 591 228 109 -5 264 -36 317 -62 33 -17 46 -8 58 40 5 22 20 75 31
119 26 94 27 94 -82 125 -168 47 -388 61 -558 36z"/>
<path d="M17130 4105 c-223 -38 -433 -175 -554 -362 -25 -39 -46 -74 -46 -77
0 -3 -13 -34 -29 -69 -100 -217 -109 -574 -23 -817 92 -256 277 -439 522 -514
30 -9 63 -21 72 -27 10 -5 95 -9 190 -9 l173 1 112 38 c388 133 593 450 593
916 0 221 -44 392 -142 557 -166 280 -511 424 -868 363z m323 -285 c140 -58
259 -200 306 -366 64 -221 49 -468 -40 -659 -49 -106 -101 -171 -175 -221 -87
-59 -150 -77 -264 -77 -149 0 -234 37 -337 146 -95 102 -142 203 -169 367 -18
109 -18 194 0 311 28 176 73 280 167 384 96 105 186 143 337 144 93 1 111 -2
175 -29z"/>
<path d="M22125 4104 c-88 -7 -172 -17 -187 -23 l-28 -11 0 -905 0 -905 28
-13 c19 -8 121 -13 337 -15 l310 -3 158 40 c335 85 511 215 625 463 73 159 95
268 96 483 0 155 -10 239 -39 330 -93 286 -312 472 -635 539 -182 38 -378 44
-665 20z m443 -244 c115 -13 143 -21 242 -68 102 -48 197 -143 245 -243 48
-103 68 -201 68 -339 1 -234 -58 -408 -181 -534 -95 -97 -212 -155 -359 -176
-75 -11 -302 -13 -327 -4 -14 6 -16 74 -16 674 0 454 3 671 10 675 9 6 88 15
203 24 10 0 61 -4 115 -9z"/>
<path d="M25179 4105 c-383 -55 -670 -302 -768 -660 -86 -316 -19 -690 163
-907 109 -131 231 -208 428 -270 100 -32 109 -33 308 -36 185 -3 213 -1 285
19 122 32 174 50 180 59 4 7 -43 239 -50 248 -2 2 -25 -4 -51 -13 -216 -73
-499 -56 -661 41 -191 115 -293 316 -293 579 0 181 38 312 125 434 94 131 204
198 395 240 108 25 325 3 435 -43 50 -21 52 -21 58 12 3 15 18 69 32 120 15
52 24 99 22 106 -3 7 -24 18 -48 25 -24 7 -55 17 -68 22 -40 16 -239 39 -325
38 -45 -1 -120 -7 -167 -14z"/>
<path d="M13376 4084 c-9 -8 -16 -21 -16 -28 0 -7 -20 -73 -44 -147 -39 -119
-76 -236 -163 -514 -14 -44 -45 -138 -68 -210 -23 -71 -70 -218 -104 -325 -35
-107 -66 -206 -71 -220 -5 -14 -29 -92 -55 -175 -25 -82 -50 -160 -56 -173 -5
-13 -7 -28 -4 -33 4 -5 78 -9 166 -9 187 0 158 -26 225 200 82 280 92 310 104
325 10 13 55 15 282 15 163 0 277 -4 288 -10 13 -7 32 -52 60 -143 23 -72 58
-184 77 -247 20 -63 41 -121 46 -127 13 -17 347 -19 347 -2 0 7 -13 50 -29 98
-40 117 -144 440 -170 526 -12 39 -28 86 -36 105 -7 19 -23 67 -35 105 -12 39
-47 151 -79 250 -33 99 -96 295 -140 435 -45 140 -89 270 -96 288 l-15 32
-199 0 c-168 0 -202 -2 -215 -16z m219 -291 c27 -138 62 -259 166 -580 27 -83
49 -158 49 -166 0 -8 -7 -18 -16 -21 -9 -3 -109 -6 -224 -6 -158 0 -210 3
-218 13 -8 9 -3 37 19 102 16 50 33 104 38 120 35 114 66 216 76 250 7 22 25
92 40 155 31 131 40 160 55 160 5 0 12 -12 15 -27z"/>
<path d="M14685 4088 c-3 -7 -4 -422 -3 -923 l3 -910 140 0 140 0 0 665 c0
366 -3 689 -7 718 -6 43 -4 52 8 52 9 0 25 -23 38 -52 70 -157 208 -420 324
-618 55 -94 226 -385 288 -490 17 -30 61 -104 96 -165 l65 -110 169 0 169 0 3
909 c1 545 -2 914 -7 919 -5 5 -73 10 -151 11 l-142 1 6 -630 c3 -346 9 -658
12 -692 7 -78 -8 -84 -38 -15 -83 192 -192 401 -333 637 -40 66 -111 188 -160
270 -48 83 -105 177 -125 210 -21 33 -50 83 -65 110 -16 28 -39 65 -52 83
l-24 32 -175 0 c-130 0 -176 -3 -179 -12z"/>
<path d="M19385 4088 c-3 -7 -6 -308 -8 -668 -3 -565 -5 -662 -19 -707 -32
-104 -90 -169 -178 -198 -52 -17 -155 -17 -277 1 -48 7 -42 19 -67 -136 -17
-106 -13 -116 40 -126 19 -3 37 -10 40 -15 3 -5 80 -9 171 -9 151 0 172 2 237
25 92 33 111 42 167 82 57 40 118 120 149 193 54 129 53 115 59 855 3 387 2
695 -3 703 -6 9 -50 12 -158 12 -110 0 -150 -3 -153 -12z"/>
<path d="M20095 4090 c-3 -5 -6 -288 -5 -627 l1 -618 25 -105 c57 -233 169
-377 351 -454 128 -54 140 -56 311 -56 171 0 208 7 347 65 59 25 156 97 206
153 43 48 102 153 121 216 53 178 50 134 55 803 l5 622 -24 6 c-12 3 -86 4
-163 3 l-140 -3 -6 -625 c-3 -414 -9 -637 -16 -660 -6 -19 -16 -52 -23 -72 -6
-20 -29 -64 -51 -97 -65 -97 -165 -146 -299 -145 -183 0 -298 99 -356 304 -16
59 -19 123 -24 680 l-5 615 -152 3 c-96 1 -154 -1 -158 -8z"/>
<path d="M23765 4088 c-3 -7 -4 -422 -3 -923 l3 -910 160 0 160 0 0 920 0 920
-158 3 c-120 2 -159 0 -162 -10z"/>
<path d="M26105 4088 c-3 -7 -4 -422 -3 -923 l3 -910 158 -3 c122 -2 157 0
157 10 3 348 -2 1822 -6 1829 -9 15 -304 11 -309 -3z"/>
<path d="M27263 4092 c-12 -8 -29 -55 -113 -322 -28 -91 -66 -210 -84 -265
-19 -55 -48 -147 -66 -205 -17 -58 -44 -143 -60 -190 -15 -47 -47 -146 -70
-220 -23 -74 -59 -187 -80 -250 -21 -63 -52 -162 -70 -220 -17 -58 -36 -113
-41 -122 -25 -47 -20 -49 158 -46 l166 3 23 70 c12 39 46 151 74 250 35 121
59 186 72 198 18 15 47 17 285 17 156 0 272 -4 283 -10 10 -5 23 -25 28 -42
22 -69 124 -395 138 -440 l16 -48 174 0 c104 0 174 4 174 10 0 5 -4 19 -9 32
-9 23 -41 121 -171 528 -40 124 -98 304 -130 400 -31 96 -83 254 -114 350
-141 439 -167 514 -178 522 -16 10 -389 10 -405 0z m229 -385 c15 -61 62 -220
104 -352 102 -324 100 -315 83 -326 -16 -10 -401 -12 -437 -2 -16 4 -22 11
-19 22 3 9 24 77 47 151 97 310 115 371 130 435 5 22 15 67 23 101 26 116 35
112 69 -29z"/>
<path d="M28555 4088 c-3 -7 -4 -422 -3 -923 l3 -910 540 0 540 0 3 132 3 133
-378 2 -378 3 -3 779 c-2 609 -5 782 -15 788 -21 14 -307 10 -312 -4z"/>
<path d="M2184 3349 c-9 -15 10 -31 29 -23 14 5 14 8 2 20 -16 17 -22 17 -31
3z"/>
<path d="M2230 3311 c0 -6 4 -13 10 -16 6 -3 7 1 4 9 -7 18 -14 21 -14 7z"/>
<path d="M2320 3300 c0 -5 5 -10 11 -10 5 0 7 5 4 10 -3 6 -8 10 -11 10 -2 0
-4 -4 -4 -10z"/>
<path d="M2150 3279 c7 -11 14 -18 17 -15 8 8 -5 36 -17 36 -7 0 -7 -6 0 -21z"/>
<path d="M2260 3251 c0 -5 7 -11 15 -15 9 -3 15 0 15 9 0 8 -7 15 -15 15 -8 0
-15 -4 -15 -9z"/>
<path d="M2380 3255 c0 -18 19 -40 26 -32 4 4 0 15 -9 24 -9 10 -17 13 -17 8z"/>
<path d="M2327 3184 c6 -17 27 -18 41 -1 8 9 3 12 -18 13 -20 1 -27 -3 -23
-12z"/>
<path d="M1966 3102 c-3 -5 1 -18 9 -28 14 -18 14 -18 15 3 0 23 -15 39 -24
25z"/>
<path d="M5105 3089 c-9 -28 1 -36 14 -10 7 12 7 22 2 26 -5 3 -13 -4 -16 -16z"/>
<path d="M1900 3030 c0 -13 28 -25 38 -16 3 4 0 11 -8 16 -20 13 -30 12 -30 0z"/>
<path d="M5160 3030 c-8 -5 -11 -12 -8 -16 10 -9 38 3 38 16 0 12 -10 13 -30
0z"/>
<path d="M2315 2990 c3 -5 8 -10 11 -10 2 0 4 5 4 10 0 6 -5 10 -11 10 -5 0
-7 -4 -4 -10z"/>
<path d="M2000 2895 c0 -8 5 -15 10 -15 6 0 10 7 10 15 0 8 -4 15 -10 15 -5 0
-10 -7 -10 -15z"/>
<path d="M5076 2901 c-4 -7 -5 -15 -2 -18 9 -9 19 4 14 18 -4 11 -6 11 -12 0z"/>
<path d="M4955 2890 c-3 -5 1 -10 9 -10 9 0 16 5 16 10 0 6 -4 10 -9 10 -6 0
-13 -4 -16 -10z"/>
<path d="M2107 2864 c-3 -3 -3 -12 0 -20 4 -10 8 -11 18 -1 7 7 11 15 8 20 -5
9 -17 9 -26 1z"/>
<path d="M4967 2863 c-3 -5 -2 -15 2 -22 7 -10 10 -10 16 -1 4 6 3 16 -3 22
-5 5 -12 6 -15 1z"/>
<path d="M1780 2841 c0 -18 18 -21 30 -6 10 13 9 15 -9 15 -11 0 -21 -4 -21
-9z"/>
<path d="M2050 2839 c0 -5 5 -7 10 -4 6 3 10 8 10 11 0 2 -4 4 -10 4 -5 0 -10
-5 -10 -11z"/>
<path d="M5020 2840 c0 -5 5 -10 10 -10 6 0 10 5 10 10 0 6 -4 10 -10 10 -5 0
-10 -4 -10 -10z"/>
<path d="M5280 2835 c12 -15 30 -12 30 6 0 5 -10 9 -21 9 -18 0 -19 -2 -9 -15z"/>
<path d="M4970 2800 c-12 -7 -12 -12 -3 -21 10 -10 14 -9 19 5 8 22 2 27 -16
16z"/>
<path d="M2102 2789 c2 -6 8 -10 13 -10 5 0 11 4 13 10 2 6 -4 11 -13 11 -9 0
-15 -5 -13 -11z"/>
<path d="M3090 1714 c0 -11 5 -14 16 -10 9 3 25 6 35 6 11 0 17 5 14 10 -11
17 -65 12 -65 -6z"/>
<path d="M4340 1310 l0 -100 145 0 145 0 0 -95 0 -94 143 -3 142 -3 1 -95 2
-95 141 -3 141 -3 0 -94 0 -95 145 0 145 0 0 295 0 295 -140 0 -140 0 0 95 0
95 -435 0 -435 0 0 -100z"/>
</g>
</svg>
